<mxfile host="www.draw.io" modified="2019-10-17T18:18:24.242Z" agent="Mozilla/5.0 (Macintosh; Intel Mac OS X 10_12_6) AppleWebKit/537.36 (KHTML, like Gecko) Chrome/77.0.3865.90 Safari/537.36" etag="vSr2YGpKC0FyyAxaMCAV" version="12.1.3" type="github" pages="1">
  <diagram id="cBoUNngE9WmwMve642ie" name="Page-1">
    <mxGraphModel dx="2729" dy="1946" grid="1" gridSize="10" guides="1" tooltips="1" connect="1" arrows="1" fold="1" page="1" pageScale="1" pageWidth="850" pageHeight="1100" math="0" shadow="0">
      <root>
        <mxCell id="0"/>
        <mxCell id="1" parent="0"/>
        <mxCell id="-t0SxdGJJtxUaenTJ9r5-21" value="" style="aspect=fixed;pointerEvents=1;shadow=0;dashed=0;html=1;strokeColor=none;labelPosition=center;verticalLabelPosition=bottom;verticalAlign=top;align=center;fillColor=#A9C4EB;shape=mxgraph.mscae.enterprise.internet;comic=1;" parent="1" vertex="1">
          <mxGeometry x="-762.5" y="-875" width="565" height="351" as="geometry"/>
        </mxCell>
        <mxCell id="YfsyUW3J8C4D2k8uaty3-4" value="" style="edgeStyle=none;comic=0;orthogonalLoop=1;jettySize=auto;html=1;startArrow=none;startFill=0;endArrow=none;endFill=0;strokeColor=#666666;strokeWidth=24;fillColor=#f5f5f5;" edge="1" parent="1">
          <mxGeometry relative="1" as="geometry">
            <mxPoint x="-710" y="-560" as="sourcePoint"/>
            <mxPoint x="-589" y="-600" as="targetPoint"/>
            <Array as="points"/>
          </mxGeometry>
        </mxCell>
        <mxCell id="YfsyUW3J8C4D2k8uaty3-3" value="" style="edgeStyle=none;comic=0;orthogonalLoop=1;jettySize=auto;html=1;startArrow=none;startFill=0;endArrow=none;endFill=0;strokeColor=#666666;strokeWidth=24;fillColor=#f5f5f5;" edge="1" parent="1">
          <mxGeometry relative="1" as="geometry">
            <mxPoint x="-710" y="-630" as="sourcePoint"/>
            <mxPoint x="-589" y="-600" as="targetPoint"/>
            <Array as="points"/>
          </mxGeometry>
        </mxCell>
        <mxCell id="G8baYWpvVq2G7eu6TOwq-664" value="" style="rounded=1;whiteSpace=wrap;html=1;shadow=0;comic=1;strokeColor=#CCCCFF;strokeWidth=11;fillColor=none;" parent="1" vertex="1">
          <mxGeometry x="-110" y="-840" width="1760" height="1870" as="geometry"/>
        </mxCell>
        <mxCell id="G8baYWpvVq2G7eu6TOwq-665" value="" style="rounded=1;whiteSpace=wrap;html=1;shadow=0;comic=1;strokeColor=#10739E;strokeWidth=11;fillColor=none;dashed=1;dashPattern=1 1;" parent="1" vertex="1">
          <mxGeometry x="203" y="-480" width="1207" height="1310" as="geometry"/>
        </mxCell>
        <mxCell id="G8baYWpvVq2G7eu6TOwq-637" value="" style="edgeStyle=none;comic=0;orthogonalLoop=1;jettySize=auto;html=1;startArrow=none;startFill=0;endArrow=none;endFill=0;strokeColor=#666666;strokeWidth=24;entryX=0.005;entryY=0.501;entryDx=0;entryDy=0;entryPerimeter=0;fillColor=#f5f5f5;" parent="1" target="G8baYWpvVq2G7eu6TOwq-374" edge="1">
          <mxGeometry relative="1" as="geometry">
            <mxPoint x="-600" y="-600" as="sourcePoint"/>
            <mxPoint x="-344" y="-607.5" as="targetPoint"/>
          </mxGeometry>
        </mxCell>
        <mxCell id="G8baYWpvVq2G7eu6TOwq-553" value="" style="group;fillColor=none;" parent="1" vertex="1" connectable="0">
          <mxGeometry x="379.77783203125" y="709.9447021484375" width="245" height="240" as="geometry"/>
        </mxCell>
        <mxCell id="G8baYWpvVq2G7eu6TOwq-554" value="" style="shape=mxgraph.gcp.extras.blue_hexagon;html=1;fillColor=#10739E;gradientColor=none;strokeColor=none;verticalLabelPosition=bottom;verticalAlign=top;align=center;rounded=0;comic=1;gradientDirection=south;shadow=0;" parent="G8baYWpvVq2G7eu6TOwq-553" vertex="1">
          <mxGeometry width="245" height="240" as="geometry"/>
        </mxCell>
        <mxCell id="G8baYWpvVq2G7eu6TOwq-555" value="" style="shape=image;html=1;verticalAlign=top;verticalLabelPosition=bottom;labelBackgroundColor=#ffffff;imageAspect=0;aspect=fixed;image=https://cdn2.iconfinder.com/data/icons/font-awesome/1792/fort-awesome-128.png;rounded=0;shadow=0;comic=1;strokeColor=#FF9933;strokeWidth=6;fillColor=#CC0000;gradientColor=none;" parent="G8baYWpvVq2G7eu6TOwq-553" vertex="1">
          <mxGeometry x="98.5" y="16.66650390625" width="48" height="48" as="geometry"/>
        </mxCell>
        <mxCell id="G8baYWpvVq2G7eu6TOwq-556" value="" style="shape=image;html=1;verticalAlign=top;verticalLabelPosition=bottom;labelBackgroundColor=#ffffff;imageAspect=0;aspect=fixed;image=https://cdn2.iconfinder.com/data/icons/kitchen-appliances-computers-and-electronics/32/Appliances-26-128.png;rounded=0;shadow=0;comic=1;strokeColor=#FF9933;strokeWidth=6;fillColor=#CC0000;gradientColor=none;" parent="G8baYWpvVq2G7eu6TOwq-553" vertex="1">
          <mxGeometry x="172" y="79.5" width="65" height="65" as="geometry"/>
        </mxCell>
        <mxCell id="G8baYWpvVq2G7eu6TOwq-557" value="" style="shape=image;html=1;verticalAlign=top;verticalLabelPosition=bottom;labelBackgroundColor=#ffffff;imageAspect=0;aspect=fixed;image=https://cdn2.iconfinder.com/data/icons/airport-solid-prepare-for-take-off/512/pilot_captain-128.png;rounded=0;shadow=0;comic=1;strokeColor=#FF9933;strokeWidth=6;fillColor=#CC0000;gradientColor=none;" parent="G8baYWpvVq2G7eu6TOwq-553" vertex="1">
          <mxGeometry x="22" y="86.5" width="58" height="58" as="geometry"/>
        </mxCell>
        <mxCell id="G8baYWpvVq2G7eu6TOwq-558" value="" style="shape=image;html=1;verticalAlign=top;verticalLabelPosition=bottom;labelBackgroundColor=#ffffff;imageAspect=0;aspect=fixed;image=https://cdn4.iconfinder.com/data/icons/transportation-190/1000/boat_transport_sail_yacht_water_ship_schooner-128.png;rounded=0;shadow=0;comic=1;strokeColor=#FF9933;strokeWidth=6;fillColor=#CC0000;gradientColor=none;" parent="G8baYWpvVq2G7eu6TOwq-553" vertex="1">
          <mxGeometry x="91.5" y="154.66650390625" width="62" height="62" as="geometry"/>
        </mxCell>
        <mxCell id="G8baYWpvVq2G7eu6TOwq-559" value="" style="shape=image;html=1;verticalAlign=top;verticalLabelPosition=bottom;labelBackgroundColor=#ffffff;imageAspect=0;aspect=fixed;image=https://cdn0.iconfinder.com/data/icons/travel-filled-line-4/64/Travel-Filled-15-128.png;rounded=0;shadow=0;comic=1;strokeColor=#FF9933;strokeWidth=6;fillColor=#001933;gradientColor=none;" parent="G8baYWpvVq2G7eu6TOwq-553" vertex="1">
          <mxGeometry x="50" y="-16.33349609375" width="33" height="33" as="geometry"/>
        </mxCell>
        <mxCell id="G8baYWpvVq2G7eu6TOwq-560" value="" style="aspect=fixed;perimeter=ellipsePerimeter;html=1;align=center;shadow=0;dashed=0;fontColor=#4277BB;labelBackgroundColor=#ffffff;fontSize=12;spacingTop=3;image;image=img/lib/ibm/infrastructure/microservices_mesh.svg;rounded=0;comic=1;strokeColor=#FF9933;strokeWidth=6;fillColor=#97D077;gradientColor=none;opacity=60;" parent="G8baYWpvVq2G7eu6TOwq-553" vertex="1">
          <mxGeometry x="88.22216796875" y="85.66650390625" width="60" height="60" as="geometry"/>
        </mxCell>
        <mxCell id="-t0SxdGJJtxUaenTJ9r5-1" value="&lt;span style=&quot;font-family: &amp;#34;helvetica&amp;#34; , &amp;#34;arial&amp;#34; , sans-serif ; font-size: 0px ; background-color: rgb(248 , 249 , 250)&quot;&gt;%3CmxGraphModel%3E%3Croot%3E%3CmxCell%20id%3D%220%22%2F%3E%3CmxCell%20id%3D%221%22%20parent%3D%220%22%2F%3E%3CmxCell%20id%3D%222%22%20value%3D%22%22%20style%3D%22endArrow%3Dclassic%3BstartArrow%3Dclassic%3Bhtml%3D1%3Bdashed%3D1%3BdashPattern%3D1%201%3BstrokeColor%3D%23B266FF%3BexitX%3D0.776%3BexitY%3D0.96%3BexitDx%3D0%3BexitDy%3D0%3BexitPerimeter%3D0%3BentryX%3D0.002%3BentryY%3D0.48%3BentryDx%3D0%3BentryDy%3D0%3BentryPerimeter%3D0%3B%22%20edge%3D%221%22%20parent%3D%221%22%3E%3CmxGeometry%20width%3D%2250%22%20height%3D%2250%22%20relative%3D%221%22%20as%3D%22geometry%22%3E%3CmxPoint%20x%3D%2210.11999999999989%22%20y%3D%22-439.5999999999999%22%20as%3D%22sourcePoint%22%2F%3E%3CmxPoint%20x%3D%22320.4899999999998%22%20y%3D%22-124.79999999999995%22%20as%3D%22targetPoint%22%2F%3E%3CArray%20as%3D%22points%22%3E%3CmxPoint%20x%3D%2290%22%20y%3D%22-310%22%2F%3E%3C%2FArray%3E%3C%2FmxGeometry%3E%3C%2FmxCell%3E%3C%2Froot%3E%3C%2FmxGraphModel%3E&lt;/span&gt;" style="aspect=fixed;html=1;points=[];align=center;image;fontSize=12;image=img/lib/mscae/Kubernetes.svg;rounded=0;shadow=0;comic=1;strokeColor=#FF9933;strokeWidth=6;fillColor=#CCCCFF;gradientColor=none;opacity=60;" parent="G8baYWpvVq2G7eu6TOwq-553" vertex="1">
          <mxGeometry x="61.72216796875" y="202.0552978515625" width="30" height="29" as="geometry"/>
        </mxCell>
        <mxCell id="G8baYWpvVq2G7eu6TOwq-246" value="" style="verticalLabelPosition=bottom;verticalAlign=top;html=1;shape=mxgraph.basic.arc;strokeColor=#10739E;strokeWidth=16;startAngle=0.7247492307754935;endAngle=0.15604976328473902;rounded=0;comic=1;shadow=0;fillColor=none;" parent="1" vertex="1">
          <mxGeometry x="673.5" y="186.5" width="150" height="140" as="geometry"/>
        </mxCell>
        <mxCell id="G8baYWpvVq2G7eu6TOwq-245" value="" style="shape=mxgraph.gcp.extras.blue_hexagon;html=1;fillColor=#4387FD;gradientColor=none;strokeColor=none;verticalLabelPosition=bottom;verticalAlign=top;align=center;rounded=0;comic=1;gradientDirection=south;shadow=0;opacity=20;" parent="1" vertex="1">
          <mxGeometry x="614" y="136" width="245" height="240" as="geometry"/>
        </mxCell>
        <mxCell id="G8baYWpvVq2G7eu6TOwq-247" value="" style="endArrow=classic;startArrow=classic;html=1;dashed=1;dashPattern=1 1;strokeColor=#CC0000;" parent="1" source="G8baYWpvVq2G7eu6TOwq-641" edge="1">
          <mxGeometry width="50" height="50" relative="1" as="geometry">
            <mxPoint x="918.5" y="373.34931506849307" as="sourcePoint"/>
            <mxPoint x="730" y="188.5" as="targetPoint"/>
            <Array as="points">
              <mxPoint x="760" y="286.5"/>
            </Array>
          </mxGeometry>
        </mxCell>
        <mxCell id="G8baYWpvVq2G7eu6TOwq-255" value="" style="endArrow=classic;startArrow=classic;html=1;dashed=1;dashPattern=1 1;strokeColor=#CC0000;entryX=0.388;entryY=0.01;entryDx=0;entryDy=0;entryPerimeter=0;" parent="1" source="G8baYWpvVq2G7eu6TOwq-254" target="G8baYWpvVq2G7eu6TOwq-246" edge="1">
          <mxGeometry width="50" height="50" relative="1" as="geometry">
            <mxPoint x="923.5" y="386.5" as="sourcePoint"/>
            <mxPoint x="783.6999999999998" y="198.8800000000001" as="targetPoint"/>
            <Array as="points">
              <mxPoint x="744" y="286.5"/>
            </Array>
          </mxGeometry>
        </mxCell>
        <mxCell id="G8baYWpvVq2G7eu6TOwq-258" value="" style="shape=mxgraph.gcp.extras.blue_hexagon;html=1;fillColor=#4387FD;gradientColor=none;strokeColor=none;verticalLabelPosition=bottom;verticalAlign=top;align=center;rounded=0;comic=1;gradientDirection=south;shadow=0;opacity=20;" parent="1" vertex="1">
          <mxGeometry x="814.5" y="16.5" width="245" height="240" as="geometry"/>
        </mxCell>
        <mxCell id="G8baYWpvVq2G7eu6TOwq-259" value="" style="verticalLabelPosition=bottom;verticalAlign=top;html=1;shape=mxgraph.basic.arc;strokeColor=#10739E;strokeWidth=16;startAngle=0.6355946523174731;endAngle=0.113293948547961;rounded=0;comic=1;shadow=0;fillColor=none;" parent="1" vertex="1">
          <mxGeometry x="873" y="66.5" width="136" height="140" as="geometry"/>
        </mxCell>
        <mxCell id="G8baYWpvVq2G7eu6TOwq-260" value="" style="endArrow=classic;startArrow=classic;html=1;dashed=1;dashPattern=1 1;strokeColor=#6600CC;exitX=0.5;exitY=0;exitDx=0;exitDy=0;" parent="1" source="G8baYWpvVq2G7eu6TOwq-261" edge="1">
          <mxGeometry width="50" height="50" relative="1" as="geometry">
            <mxPoint x="937.5" y="196.5" as="sourcePoint"/>
            <mxPoint x="938" y="70" as="targetPoint"/>
          </mxGeometry>
        </mxCell>
        <mxCell id="G8baYWpvVq2G7eu6TOwq-261" value="" style="shape=image;html=1;verticalAlign=top;verticalLabelPosition=bottom;labelBackgroundColor=#ffffff;imageAspect=0;aspect=fixed;image=https://cdn4.iconfinder.com/data/icons/48x48-free-object-icons/48/Black_ball.png;shadow=0;fontFamily=Helvetica;fontSize=12;fontColor=#000000;align=center;strokeColor=#000000;strokeWidth=6;" parent="1" vertex="1">
          <mxGeometry x="913.5" y="112.5" width="48" height="48" as="geometry"/>
        </mxCell>
        <mxCell id="G8baYWpvVq2G7eu6TOwq-268" value="" style="endArrow=classic;startArrow=classic;html=1;dashed=1;dashPattern=1 1;strokeColor=#6600CC;entryX=0.577;entryY=-0.004;entryDx=0;entryDy=0;entryPerimeter=0;" parent="1" target="G8baYWpvVq2G7eu6TOwq-239" edge="1">
          <mxGeometry width="50" height="50" relative="1" as="geometry">
            <mxPoint x="1060" y="5.5" as="sourcePoint"/>
            <mxPoint x="770" y="-53.5" as="targetPoint"/>
            <Array as="points">
              <mxPoint x="810" y="26.5"/>
            </Array>
          </mxGeometry>
        </mxCell>
        <mxCell id="G8baYWpvVq2G7eu6TOwq-269" value="" style="endArrow=classic;startArrow=classic;html=1;dashed=1;dashPattern=1 1;strokeColor=#6600CC;exitX=0.324;exitY=0.015;exitDx=0;exitDy=0;exitPerimeter=0;entryX=0.592;entryY=-0.004;entryDx=0;entryDy=0;entryPerimeter=0;" parent="1" source="G8baYWpvVq2G7eu6TOwq-259" target="G8baYWpvVq2G7eu6TOwq-239" edge="1">
          <mxGeometry width="50" height="50" relative="1" as="geometry">
            <mxPoint x="1070" y="15.5" as="sourcePoint"/>
            <mxPoint x="780" y="-43.5" as="targetPoint"/>
            <Array as="points">
              <mxPoint x="810" y="30"/>
            </Array>
          </mxGeometry>
        </mxCell>
        <mxCell id="G8baYWpvVq2G7eu6TOwq-311" value="" style="group" parent="1" vertex="1" connectable="0">
          <mxGeometry x="590" y="386.5" width="293" height="288" as="geometry"/>
        </mxCell>
        <mxCell id="G8baYWpvVq2G7eu6TOwq-251" value="" style="shape=mxgraph.gcp.extras.blue_hexagon;html=1;fillColor=#4387FD;gradientColor=none;strokeColor=none;verticalLabelPosition=bottom;verticalAlign=top;align=center;rounded=0;comic=1;gradientDirection=south;shadow=0;opacity=20;" parent="G8baYWpvVq2G7eu6TOwq-311" vertex="1">
          <mxGeometry width="245" height="240" as="geometry"/>
        </mxCell>
        <mxCell id="G8baYWpvVq2G7eu6TOwq-254" value="" style="shape=image;html=1;verticalAlign=top;verticalLabelPosition=bottom;labelBackgroundColor=#ffffff;imageAspect=0;aspect=fixed;image=https://cdn4.iconfinder.com/data/icons/48x48-free-object-icons/48/Green_ball.png;rounded=0;shadow=0;comic=1;strokeColor=#FF9933;strokeWidth=6;fillColor=none;gradientColor=none;" parent="G8baYWpvVq2G7eu6TOwq-311" vertex="1">
          <mxGeometry x="98.5" y="96" width="48" height="48" as="geometry"/>
        </mxCell>
        <mxCell id="G8baYWpvVq2G7eu6TOwq-313" value="" style="group" parent="G8baYWpvVq2G7eu6TOwq-311" vertex="1" connectable="0">
          <mxGeometry x="24" y="24" width="269" height="264" as="geometry"/>
        </mxCell>
        <mxCell id="G8baYWpvVq2G7eu6TOwq-314" value="" style="shape=mxgraph.gcp.extras.blue_hexagon;html=1;fillColor=#4387FD;gradientColor=none;strokeColor=none;verticalLabelPosition=bottom;verticalAlign=top;align=center;rounded=0;comic=1;gradientDirection=south;shadow=0;opacity=20;" parent="G8baYWpvVq2G7eu6TOwq-313" vertex="1">
          <mxGeometry width="245" height="240" as="geometry"/>
        </mxCell>
        <mxCell id="G8baYWpvVq2G7eu6TOwq-315" value="" style="shape=image;html=1;verticalAlign=top;verticalLabelPosition=bottom;labelBackgroundColor=#ffffff;imageAspect=0;aspect=fixed;image=https://cdn4.iconfinder.com/data/icons/48x48-free-object-icons/48/Green_ball.png;rounded=0;shadow=0;comic=1;strokeColor=#FF9933;strokeWidth=6;fillColor=none;gradientColor=none;" parent="G8baYWpvVq2G7eu6TOwq-313" vertex="1">
          <mxGeometry x="98.5" y="96" width="48" height="48" as="geometry"/>
        </mxCell>
        <mxCell id="G8baYWpvVq2G7eu6TOwq-328" value="" style="group" parent="G8baYWpvVq2G7eu6TOwq-313" vertex="1" connectable="0">
          <mxGeometry x="24" y="24" width="245" height="240" as="geometry"/>
        </mxCell>
        <mxCell id="G8baYWpvVq2G7eu6TOwq-329" value="" style="shape=mxgraph.gcp.extras.blue_hexagon;html=1;fillColor=#4387FD;gradientColor=none;strokeColor=none;verticalLabelPosition=bottom;verticalAlign=top;align=center;rounded=0;comic=1;gradientDirection=south;shadow=0;opacity=20;" parent="G8baYWpvVq2G7eu6TOwq-328" vertex="1">
          <mxGeometry width="245" height="240" as="geometry"/>
        </mxCell>
        <mxCell id="G8baYWpvVq2G7eu6TOwq-330" value="" style="shape=image;html=1;verticalAlign=top;verticalLabelPosition=bottom;labelBackgroundColor=#ffffff;imageAspect=0;aspect=fixed;image=https://cdn4.iconfinder.com/data/icons/48x48-free-object-icons/48/Green_ball.png;rounded=0;shadow=0;comic=1;strokeColor=#FF9933;strokeWidth=6;fillColor=none;gradientColor=none;" parent="G8baYWpvVq2G7eu6TOwq-328" vertex="1">
          <mxGeometry x="98.5" y="96" width="48" height="48" as="geometry"/>
        </mxCell>
        <mxCell id="G8baYWpvVq2G7eu6TOwq-414" value="&lt;span style=&quot;font-family: &amp;#34;helvetica&amp;#34; , &amp;#34;arial&amp;#34; , sans-serif ; font-size: 0px ; background-color: rgb(248 , 249 , 250)&quot;&gt;%3CmxGraphModel%3E%3Croot%3E%3CmxCell%20id%3D%220%22%2F%3E%3CmxCell%20id%3D%221%22%20parent%3D%220%22%2F%3E%3CmxCell%20id%3D%222%22%20value%3D%22%22%20style%3D%22endArrow%3Dclassic%3BstartArrow%3Dclassic%3Bhtml%3D1%3Bdashed%3D1%3BdashPattern%3D1%201%3BstrokeColor%3D%23B266FF%3BexitX%3D0.776%3BexitY%3D0.96%3BexitDx%3D0%3BexitDy%3D0%3BexitPerimeter%3D0%3BentryX%3D0.002%3BentryY%3D0.48%3BentryDx%3D0%3BentryDy%3D0%3BentryPerimeter%3D0%3B%22%20edge%3D%221%22%20parent%3D%221%22%3E%3CmxGeometry%20width%3D%2250%22%20height%3D%2250%22%20relative%3D%221%22%20as%3D%22geometry%22%3E%3CmxPoint%20x%3D%2210.11999999999989%22%20y%3D%22-439.5999999999999%22%20as%3D%22sourcePoint%22%2F%3E%3CmxPoint%20x%3D%22320.4899999999998%22%20y%3D%22-124.79999999999995%22%20as%3D%22targetPoint%22%2F%3E%3CArray%20as%3D%22points%22%3E%3CmxPoint%20x%3D%2290%22%20y%3D%22-310%22%2F%3E%3C%2FArray%3E%3C%2FmxGeometry%3E%3C%2FmxCell%3E%3C%2Froot%3E%3C%2FmxGraphModel%3E&lt;/span&gt;" style="aspect=fixed;html=1;points=[];align=center;image;fontSize=12;image=img/lib/mscae/Kubernetes.svg;rounded=0;shadow=0;comic=1;strokeColor=#FF9933;strokeWidth=6;fillColor=#CCCCFF;gradientColor=none;opacity=60;" parent="G8baYWpvVq2G7eu6TOwq-328" vertex="1">
          <mxGeometry x="62" y="205.5" width="30" height="29" as="geometry"/>
        </mxCell>
        <mxCell id="G8baYWpvVq2G7eu6TOwq-312" value="" style="endArrow=classic;startArrow=classic;html=1;dashed=1;dashPattern=1 1;strokeColor=#CC0000;entryX=0.381;entryY=0.022;entryDx=0;entryDy=0;entryPerimeter=0;" parent="1" source="G8baYWpvVq2G7eu6TOwq-315" target="G8baYWpvVq2G7eu6TOwq-246" edge="1">
          <mxGeometry width="50" height="50" relative="1" as="geometry">
            <mxPoint x="933.5" y="396.5" as="sourcePoint"/>
            <mxPoint x="741.6999999999998" y="197.9000000000001" as="targetPoint"/>
            <Array as="points">
              <mxPoint x="754" y="296.5"/>
            </Array>
          </mxGeometry>
        </mxCell>
        <mxCell id="G8baYWpvVq2G7eu6TOwq-331" value="" style="endArrow=classic;startArrow=classic;html=1;dashed=1;dashPattern=1 1;strokeColor=#CC0000;entryX=0.381;entryY=0.022;entryDx=0;entryDy=0;entryPerimeter=0;exitX=0.5;exitY=0;exitDx=0;exitDy=0;" parent="1" source="G8baYWpvVq2G7eu6TOwq-330" target="G8baYWpvVq2G7eu6TOwq-246" edge="1">
          <mxGeometry width="50" height="50" relative="1" as="geometry">
            <mxPoint x="766.2435897435898" y="516.5" as="sourcePoint"/>
            <mxPoint x="740.6500000000001" y="199.57999999999993" as="targetPoint"/>
            <Array as="points">
              <mxPoint x="764" y="306.5"/>
            </Array>
          </mxGeometry>
        </mxCell>
        <mxCell id="G8baYWpvVq2G7eu6TOwq-332" value="" style="group" parent="1" vertex="1" connectable="0">
          <mxGeometry x="614" y="-114" width="255" height="250" as="geometry"/>
        </mxCell>
        <mxCell id="G8baYWpvVq2G7eu6TOwq-238" value="" style="shape=mxgraph.gcp.extras.blue_hexagon;html=1;fillColor=#4387FD;gradientColor=none;strokeColor=none;verticalLabelPosition=bottom;verticalAlign=top;align=center;rounded=0;comic=1;gradientDirection=south;shadow=0;opacity=20;" parent="G8baYWpvVq2G7eu6TOwq-332" vertex="1">
          <mxGeometry width="245" height="240" as="geometry"/>
        </mxCell>
        <mxCell id="G8baYWpvVq2G7eu6TOwq-239" value="" style="verticalLabelPosition=bottom;verticalAlign=top;html=1;shape=mxgraph.basic.arc;strokeColor=#10739E;strokeWidth=16;startAngle=0.6355946523174731;endAngle=0.113293948547961;rounded=0;comic=1;shadow=0;fillColor=none;rotation=-20;" parent="G8baYWpvVq2G7eu6TOwq-332" vertex="1">
          <mxGeometry x="51" y="50" width="136" height="140" as="geometry"/>
        </mxCell>
        <mxCell id="G8baYWpvVq2G7eu6TOwq-241" value="" style="endArrow=classic;startArrow=classic;html=1;dashed=1;dashPattern=1 1;strokeColor=#FF9933;exitX=0;exitY=0.25;exitDx=0;exitDy=0;entryX=0.198;entryY=0.116;entryDx=0;entryDy=0;entryPerimeter=0;" parent="G8baYWpvVq2G7eu6TOwq-332" source="G8baYWpvVq2G7eu6TOwq-431" target="G8baYWpvVq2G7eu6TOwq-239" edge="1">
          <mxGeometry width="50" height="50" relative="1" as="geometry">
            <mxPoint x="123" y="96" as="sourcePoint"/>
            <mxPoint x="72" y="100" as="targetPoint"/>
          </mxGeometry>
        </mxCell>
        <mxCell id="G8baYWpvVq2G7eu6TOwq-410" value="" style="aspect=fixed;html=1;points=[];align=center;image;fontSize=12;image=img/lib/mscae/Kubernetes.svg;rounded=0;shadow=0;comic=1;strokeColor=#FF9933;strokeWidth=6;fillColor=#CCCCFF;gradientColor=none;opacity=60;" parent="G8baYWpvVq2G7eu6TOwq-332" vertex="1">
          <mxGeometry x="58.5" y="200" width="30" height="29" as="geometry"/>
        </mxCell>
        <mxCell id="G8baYWpvVq2G7eu6TOwq-431" value="" style="shape=image;html=1;verticalAlign=top;verticalLabelPosition=bottom;labelBackgroundColor=#ffffff;imageAspect=0;aspect=fixed;image=https://cdn4.iconfinder.com/data/icons/REALVISTA/3d_graphics/png/128/cube.png;rounded=0;shadow=0;comic=1;strokeColor=#FF9933;strokeWidth=6;fillColor=#CC0000;gradientColor=none;" parent="G8baYWpvVq2G7eu6TOwq-332" vertex="1">
          <mxGeometry x="88.5" y="89" width="62" height="62" as="geometry"/>
        </mxCell>
        <mxCell id="G8baYWpvVq2G7eu6TOwq-333" value="" style="group" parent="1" vertex="1" connectable="0">
          <mxGeometry x="1009" y="-103.5" width="294" height="290" as="geometry"/>
        </mxCell>
        <mxCell id="G8baYWpvVq2G7eu6TOwq-263" value="" style="shape=mxgraph.gcp.extras.blue_hexagon;html=1;fillColor=#4387FD;gradientColor=none;strokeColor=none;verticalLabelPosition=bottom;verticalAlign=top;align=center;rounded=0;comic=1;gradientDirection=south;shadow=0;opacity=20;" parent="G8baYWpvVq2G7eu6TOwq-333" vertex="1">
          <mxGeometry width="245" height="240" as="geometry"/>
        </mxCell>
        <mxCell id="G8baYWpvVq2G7eu6TOwq-264" value="" style="verticalLabelPosition=bottom;verticalAlign=top;html=1;shape=mxgraph.basic.arc;strokeColor=#10739E;strokeWidth=16;startAngle=0.6355946523174731;endAngle=0.113293948547961;rounded=0;comic=1;shadow=0;fillColor=none;" parent="G8baYWpvVq2G7eu6TOwq-333" vertex="1">
          <mxGeometry x="58.5" y="50" width="136" height="140" as="geometry"/>
        </mxCell>
        <mxCell id="G8baYWpvVq2G7eu6TOwq-265" value="" style="endArrow=classic;startArrow=classic;html=1;dashed=1;dashPattern=1 1;strokeColor=#6600CC;exitX=0.5;exitY=0;exitDx=0;exitDy=0;" parent="G8baYWpvVq2G7eu6TOwq-333" source="G8baYWpvVq2G7eu6TOwq-266" edge="1">
          <mxGeometry width="50" height="50" relative="1" as="geometry">
            <mxPoint x="123" y="180" as="sourcePoint"/>
            <mxPoint x="123" y="60" as="targetPoint"/>
          </mxGeometry>
        </mxCell>
        <mxCell id="G8baYWpvVq2G7eu6TOwq-266" value="" style="shape=image;html=1;verticalAlign=top;verticalLabelPosition=bottom;labelBackgroundColor=#ffffff;imageAspect=0;aspect=fixed;image=https://cdn4.iconfinder.com/data/icons/48x48-free-object-icons/48/Yin-yan.png;shadow=0;fontFamily=Helvetica;fontSize=12;fontColor=#000000;align=center;strokeColor=#000000;strokeWidth=6;" parent="G8baYWpvVq2G7eu6TOwq-333" vertex="1">
          <mxGeometry x="99" y="96" width="48" height="48" as="geometry"/>
        </mxCell>
        <mxCell id="G8baYWpvVq2G7eu6TOwq-334" value="" style="group" parent="G8baYWpvVq2G7eu6TOwq-333" vertex="1" connectable="0">
          <mxGeometry x="24.5" y="24" width="269.5" height="266" as="geometry"/>
        </mxCell>
        <mxCell id="G8baYWpvVq2G7eu6TOwq-335" value="" style="shape=mxgraph.gcp.extras.blue_hexagon;html=1;fillColor=#4387FD;gradientColor=none;strokeColor=none;verticalLabelPosition=bottom;verticalAlign=top;align=center;rounded=0;comic=1;gradientDirection=south;shadow=0;opacity=20;" parent="G8baYWpvVq2G7eu6TOwq-334" vertex="1">
          <mxGeometry width="245" height="240" as="geometry"/>
        </mxCell>
        <mxCell id="G8baYWpvVq2G7eu6TOwq-336" value="" style="verticalLabelPosition=bottom;verticalAlign=top;html=1;shape=mxgraph.basic.arc;strokeColor=#10739E;strokeWidth=16;startAngle=0.6355946523174731;endAngle=0.113293948547961;rounded=0;comic=1;shadow=0;fillColor=none;" parent="G8baYWpvVq2G7eu6TOwq-334" vertex="1">
          <mxGeometry x="58.5" y="50" width="136" height="140" as="geometry"/>
        </mxCell>
        <mxCell id="G8baYWpvVq2G7eu6TOwq-337" value="" style="endArrow=classic;startArrow=classic;html=1;dashed=1;dashPattern=1 1;strokeColor=#6600CC;exitX=0.5;exitY=0;exitDx=0;exitDy=0;" parent="G8baYWpvVq2G7eu6TOwq-334" source="G8baYWpvVq2G7eu6TOwq-338" edge="1">
          <mxGeometry width="50" height="50" relative="1" as="geometry">
            <mxPoint x="123" y="180" as="sourcePoint"/>
            <mxPoint x="123" y="60" as="targetPoint"/>
          </mxGeometry>
        </mxCell>
        <mxCell id="G8baYWpvVq2G7eu6TOwq-338" value="" style="shape=image;html=1;verticalAlign=top;verticalLabelPosition=bottom;labelBackgroundColor=#ffffff;imageAspect=0;aspect=fixed;image=https://cdn4.iconfinder.com/data/icons/48x48-free-object-icons/48/Yin-yan.png;shadow=0;fontFamily=Helvetica;fontSize=12;fontColor=#000000;align=center;strokeColor=#000000;strokeWidth=6;" parent="G8baYWpvVq2G7eu6TOwq-334" vertex="1">
          <mxGeometry x="99" y="96" width="48" height="48" as="geometry"/>
        </mxCell>
        <mxCell id="G8baYWpvVq2G7eu6TOwq-339" value="" style="group" parent="G8baYWpvVq2G7eu6TOwq-334" vertex="1" connectable="0">
          <mxGeometry x="24.5" y="26" width="245" height="240" as="geometry"/>
        </mxCell>
        <mxCell id="G8baYWpvVq2G7eu6TOwq-340" value="" style="shape=mxgraph.gcp.extras.blue_hexagon;html=1;fillColor=#4387FD;gradientColor=none;strokeColor=none;verticalLabelPosition=bottom;verticalAlign=top;align=center;rounded=0;comic=1;gradientDirection=south;shadow=0;opacity=20;" parent="G8baYWpvVq2G7eu6TOwq-339" vertex="1">
          <mxGeometry width="245" height="240" as="geometry"/>
        </mxCell>
        <mxCell id="G8baYWpvVq2G7eu6TOwq-341" value="" style="verticalLabelPosition=bottom;verticalAlign=top;html=1;shape=mxgraph.basic.arc;strokeColor=#10739E;strokeWidth=16;startAngle=0.6355946523174731;endAngle=0.113293948547961;rounded=0;comic=1;shadow=0;fillColor=none;" parent="G8baYWpvVq2G7eu6TOwq-339" vertex="1">
          <mxGeometry x="58.5" y="50" width="136" height="140" as="geometry"/>
        </mxCell>
        <mxCell id="G8baYWpvVq2G7eu6TOwq-342" value="" style="endArrow=classic;startArrow=classic;html=1;dashed=1;dashPattern=1 1;strokeColor=#6600CC;exitX=0.5;exitY=0;exitDx=0;exitDy=0;" parent="G8baYWpvVq2G7eu6TOwq-339" source="G8baYWpvVq2G7eu6TOwq-343" edge="1">
          <mxGeometry width="50" height="50" relative="1" as="geometry">
            <mxPoint x="123" y="180" as="sourcePoint"/>
            <mxPoint x="123" y="60" as="targetPoint"/>
          </mxGeometry>
        </mxCell>
        <mxCell id="G8baYWpvVq2G7eu6TOwq-343" value="" style="shape=image;html=1;verticalAlign=top;verticalLabelPosition=bottom;labelBackgroundColor=#ffffff;imageAspect=0;aspect=fixed;image=https://cdn4.iconfinder.com/data/icons/48x48-free-object-icons/48/Yin-yan.png;shadow=0;fontFamily=Helvetica;fontSize=12;fontColor=#000000;align=center;strokeColor=#000000;strokeWidth=6;" parent="G8baYWpvVq2G7eu6TOwq-339" vertex="1">
          <mxGeometry x="99" y="96" width="48" height="48" as="geometry"/>
        </mxCell>
        <mxCell id="G8baYWpvVq2G7eu6TOwq-412" value="" style="aspect=fixed;html=1;points=[];align=center;image;fontSize=12;image=img/lib/mscae/Kubernetes.svg;rounded=0;shadow=0;comic=1;strokeColor=#FF9933;strokeWidth=6;fillColor=#CCCCFF;gradientColor=none;opacity=60;" parent="G8baYWpvVq2G7eu6TOwq-339" vertex="1">
          <mxGeometry x="152" y="200" width="30" height="29" as="geometry"/>
        </mxCell>
        <mxCell id="G8baYWpvVq2G7eu6TOwq-344" value="" style="endArrow=classic;startArrow=classic;html=1;dashed=1;dashPattern=1 1;strokeColor=#6600CC;entryX=0.592;entryY=0.01;entryDx=0;entryDy=0;entryPerimeter=0;" parent="1" source="G8baYWpvVq2G7eu6TOwq-341" target="G8baYWpvVq2G7eu6TOwq-239" edge="1">
          <mxGeometry width="50" height="50" relative="1" as="geometry">
            <mxPoint x="1100" y="6.5" as="sourcePoint"/>
            <mxPoint x="775.404" y="-49.440000000000055" as="targetPoint"/>
            <Array as="points">
              <mxPoint x="810" y="26.5"/>
            </Array>
          </mxGeometry>
        </mxCell>
        <mxCell id="G8baYWpvVq2G7eu6TOwq-345" value="" style="endArrow=classic;startArrow=classic;html=1;dashed=1;dashPattern=1 1;strokeColor=#6600CC;entryX=0.592;entryY=0.001;entryDx=0;entryDy=0;entryPerimeter=0;" parent="1" target="G8baYWpvVq2G7eu6TOwq-239" edge="1">
          <mxGeometry width="50" height="50" relative="1" as="geometry">
            <mxPoint x="1090" y="27" as="sourcePoint"/>
            <mxPoint x="766.9720000000002" y="-54.059999999999945" as="targetPoint"/>
            <Array as="points">
              <mxPoint x="810" y="26.5"/>
            </Array>
          </mxGeometry>
        </mxCell>
        <mxCell id="G8baYWpvVq2G7eu6TOwq-346" value="" style="group" parent="1" vertex="1" connectable="0">
          <mxGeometry x="820" y="266.5" width="349" height="344" as="geometry"/>
        </mxCell>
        <mxCell id="G8baYWpvVq2G7eu6TOwq-643" value="" style="group" parent="G8baYWpvVq2G7eu6TOwq-346" vertex="1" connectable="0">
          <mxGeometry width="275" height="273.5" as="geometry"/>
        </mxCell>
        <mxCell id="G8baYWpvVq2G7eu6TOwq-249" value="" style="shape=mxgraph.gcp.extras.blue_hexagon;html=1;fillColor=#4387FD;gradientColor=none;strokeColor=none;verticalLabelPosition=bottom;verticalAlign=top;align=center;rounded=0;comic=1;gradientDirection=south;shadow=0;opacity=20;" parent="G8baYWpvVq2G7eu6TOwq-643" vertex="1">
          <mxGeometry width="245" height="240" as="geometry"/>
        </mxCell>
        <mxCell id="G8baYWpvVq2G7eu6TOwq-641" value="" style="shape=image;html=1;verticalAlign=top;verticalLabelPosition=bottom;labelBackgroundColor=#ffffff;imageAspect=0;aspect=fixed;image=https://cdn4.iconfinder.com/data/icons/48x48-free-object-icons/48/Blue_ball.png;rounded=0;shadow=0;comic=1;strokeColor=#10739E;strokeWidth=6;fillColor=#10739E;gradientColor=none;" parent="G8baYWpvVq2G7eu6TOwq-643" vertex="1">
          <mxGeometry x="96" y="91" width="48" height="48" as="geometry"/>
        </mxCell>
        <mxCell id="G8baYWpvVq2G7eu6TOwq-413" value="" style="aspect=fixed;html=1;points=[];align=center;image;fontSize=12;image=img/lib/mscae/Kubernetes.svg;rounded=0;shadow=0;comic=1;strokeColor=#FF9933;strokeWidth=6;fillColor=#CCCCFF;gradientColor=none;opacity=60;" parent="G8baYWpvVq2G7eu6TOwq-643" vertex="1">
          <mxGeometry x="60" y="203.5" width="30" height="29" as="geometry"/>
        </mxCell>
        <mxCell id="G8baYWpvVq2G7eu6TOwq-644" value="" style="group" parent="G8baYWpvVq2G7eu6TOwq-643" vertex="1" connectable="0">
          <mxGeometry x="30" y="33.5" width="245" height="240" as="geometry"/>
        </mxCell>
        <mxCell id="G8baYWpvVq2G7eu6TOwq-645" value="" style="shape=mxgraph.gcp.extras.blue_hexagon;html=1;fillColor=#4387FD;gradientColor=none;strokeColor=none;verticalLabelPosition=bottom;verticalAlign=top;align=center;rounded=0;comic=1;gradientDirection=south;shadow=0;opacity=20;" parent="G8baYWpvVq2G7eu6TOwq-644" vertex="1">
          <mxGeometry width="245" height="240" as="geometry"/>
        </mxCell>
        <mxCell id="G8baYWpvVq2G7eu6TOwq-646" value="" style="shape=image;html=1;verticalAlign=top;verticalLabelPosition=bottom;labelBackgroundColor=#ffffff;imageAspect=0;aspect=fixed;image=https://cdn4.iconfinder.com/data/icons/48x48-free-object-icons/48/Blue_ball.png;rounded=0;shadow=0;comic=1;strokeColor=#10739E;strokeWidth=6;fillColor=#10739E;gradientColor=none;" parent="G8baYWpvVq2G7eu6TOwq-644" vertex="1">
          <mxGeometry x="96" y="91" width="48" height="48" as="geometry"/>
        </mxCell>
        <mxCell id="G8baYWpvVq2G7eu6TOwq-647" value="" style="aspect=fixed;html=1;points=[];align=center;image;fontSize=12;image=img/lib/mscae/Kubernetes.svg;rounded=0;shadow=0;comic=1;strokeColor=#FF9933;strokeWidth=6;fillColor=#CCCCFF;gradientColor=none;opacity=60;" parent="G8baYWpvVq2G7eu6TOwq-644" vertex="1">
          <mxGeometry x="60" y="203.5" width="30" height="29" as="geometry"/>
        </mxCell>
        <mxCell id="G8baYWpvVq2G7eu6TOwq-353" value="" style="endArrow=classic;startArrow=classic;html=1;dashed=1;dashPattern=1 1;strokeColor=#CC0000;" parent="1" source="G8baYWpvVq2G7eu6TOwq-646" edge="1">
          <mxGeometry width="50" height="50" relative="1" as="geometry">
            <mxPoint x="948.5" y="416.5" as="sourcePoint"/>
            <mxPoint x="730" y="186.5" as="targetPoint"/>
            <Array as="points">
              <mxPoint x="760" y="296.5"/>
            </Array>
          </mxGeometry>
        </mxCell>
        <mxCell id="G8baYWpvVq2G7eu6TOwq-372" value="" style="endArrow=classic;startArrow=classic;html=1;dashed=1;dashPattern=1 1;strokeColor=#CC0000;entryX=0.375;entryY=0.014;entryDx=0;entryDy=0;entryPerimeter=0;" parent="1" source="G8baYWpvVq2G7eu6TOwq-658" target="G8baYWpvVq2G7eu6TOwq-246" edge="1">
          <mxGeometry width="50" height="50" relative="1" as="geometry">
            <mxPoint x="978.5" y="446.5" as="sourcePoint"/>
            <mxPoint x="740" y="196.5" as="targetPoint"/>
            <Array as="points">
              <mxPoint x="770" y="316.5"/>
            </Array>
          </mxGeometry>
        </mxCell>
        <mxCell id="G8baYWpvVq2G7eu6TOwq-386" value="" style="endArrow=classic;startArrow=classic;html=1;dashed=1;dashPattern=1 1;strokeColor=#B266FF;exitX=0.776;exitY=0.96;exitDx=0;exitDy=0;exitPerimeter=0;entryX=0.002;entryY=0.48;entryDx=0;entryDy=0;entryPerimeter=0;" parent="1" source="G8baYWpvVq2G7eu6TOwq-374" target="G8baYWpvVq2G7eu6TOwq-305" edge="1">
          <mxGeometry width="50" height="50" relative="1" as="geometry">
            <mxPoint x="6.579999999999927" y="203.6199999999999" as="sourcePoint"/>
            <mxPoint x="232.44999999999982" y="-139.26" as="targetPoint"/>
            <Array as="points">
              <mxPoint x="40" y="-360"/>
            </Array>
          </mxGeometry>
        </mxCell>
        <mxCell id="G8baYWpvVq2G7eu6TOwq-402" value="" style="group" parent="1" vertex="1" connectable="0">
          <mxGeometry x="880" y="326.5" width="445" height="629.9447021484375" as="geometry"/>
        </mxCell>
        <mxCell id="G8baYWpvVq2G7eu6TOwq-526" value="" style="group;fillColor=none;" parent="G8baYWpvVq2G7eu6TOwq-402" vertex="1" connectable="0">
          <mxGeometry x="-800" y="-406.5" width="245" height="240" as="geometry"/>
        </mxCell>
        <mxCell id="G8baYWpvVq2G7eu6TOwq-527" value="" style="shape=mxgraph.gcp.extras.blue_hexagon;html=1;fillColor=#10739E;gradientColor=none;strokeColor=none;verticalLabelPosition=bottom;verticalAlign=top;align=center;rounded=0;comic=1;gradientDirection=south;shadow=0;" parent="G8baYWpvVq2G7eu6TOwq-526" vertex="1">
          <mxGeometry width="245" height="240" as="geometry"/>
        </mxCell>
        <mxCell id="G8baYWpvVq2G7eu6TOwq-528" value="" style="shape=image;html=1;verticalAlign=top;verticalLabelPosition=bottom;labelBackgroundColor=#ffffff;imageAspect=0;aspect=fixed;image=https://cdn2.iconfinder.com/data/icons/font-awesome/1792/fort-awesome-128.png;rounded=0;shadow=0;comic=1;strokeColor=#FF9933;strokeWidth=6;fillColor=#CC0000;gradientColor=none;" parent="G8baYWpvVq2G7eu6TOwq-526" vertex="1">
          <mxGeometry x="98.5" y="16.66650390625" width="48" height="48" as="geometry"/>
        </mxCell>
        <mxCell id="G8baYWpvVq2G7eu6TOwq-529" value="" style="shape=image;html=1;verticalAlign=top;verticalLabelPosition=bottom;labelBackgroundColor=#ffffff;imageAspect=0;aspect=fixed;image=https://cdn2.iconfinder.com/data/icons/kitchen-appliances-computers-and-electronics/32/Appliances-26-128.png;rounded=0;shadow=0;comic=1;strokeColor=#FF9933;strokeWidth=6;fillColor=#CC0000;gradientColor=none;" parent="G8baYWpvVq2G7eu6TOwq-526" vertex="1">
          <mxGeometry x="172" y="79.5" width="65" height="65" as="geometry"/>
        </mxCell>
        <mxCell id="G8baYWpvVq2G7eu6TOwq-530" value="" style="shape=image;html=1;verticalAlign=top;verticalLabelPosition=bottom;labelBackgroundColor=#ffffff;imageAspect=0;aspect=fixed;image=https://cdn2.iconfinder.com/data/icons/airport-solid-prepare-for-take-off/512/pilot_captain-128.png;rounded=0;shadow=0;comic=1;strokeColor=#FF9933;strokeWidth=6;fillColor=#CC0000;gradientColor=none;" parent="G8baYWpvVq2G7eu6TOwq-526" vertex="1">
          <mxGeometry x="22" y="86.5" width="58" height="58" as="geometry"/>
        </mxCell>
        <mxCell id="G8baYWpvVq2G7eu6TOwq-531" value="" style="shape=image;html=1;verticalAlign=top;verticalLabelPosition=bottom;labelBackgroundColor=#ffffff;imageAspect=0;aspect=fixed;image=https://cdn4.iconfinder.com/data/icons/transportation-190/1000/boat_transport_sail_yacht_water_ship_schooner-128.png;rounded=0;shadow=0;comic=1;strokeColor=#FF9933;strokeWidth=6;fillColor=#CC0000;gradientColor=none;" parent="G8baYWpvVq2G7eu6TOwq-526" vertex="1">
          <mxGeometry x="91.5" y="154.66650390625" width="62" height="62" as="geometry"/>
        </mxCell>
        <mxCell id="G8baYWpvVq2G7eu6TOwq-532" value="" style="shape=image;html=1;verticalAlign=top;verticalLabelPosition=bottom;labelBackgroundColor=#ffffff;imageAspect=0;aspect=fixed;image=https://cdn0.iconfinder.com/data/icons/travel-filled-line-4/64/Travel-Filled-15-128.png;rounded=0;shadow=0;comic=1;strokeColor=#FF9933;strokeWidth=6;fillColor=#001933;gradientColor=none;" parent="G8baYWpvVq2G7eu6TOwq-526" vertex="1">
          <mxGeometry x="50" y="-16.33349609375" width="33" height="33" as="geometry"/>
        </mxCell>
        <mxCell id="G8baYWpvVq2G7eu6TOwq-536" value="" style="aspect=fixed;perimeter=ellipsePerimeter;html=1;align=center;shadow=0;dashed=0;fontColor=#4277BB;labelBackgroundColor=#ffffff;fontSize=12;spacingTop=3;image;image=img/lib/ibm/infrastructure/microservices_mesh.svg;rounded=0;comic=1;strokeColor=#FF9933;strokeWidth=6;fillColor=#97D077;gradientColor=none;opacity=60;" parent="G8baYWpvVq2G7eu6TOwq-526" vertex="1">
          <mxGeometry x="88.22216796875" y="85.66650390625" width="60" height="60" as="geometry"/>
        </mxCell>
        <mxCell id="-t0SxdGJJtxUaenTJ9r5-4" value="&lt;span style=&quot;font-family: &amp;#34;helvetica&amp;#34; , &amp;#34;arial&amp;#34; , sans-serif ; font-size: 0px ; background-color: rgb(248 , 249 , 250)&quot;&gt;%3CmxGraphModel%3E%3Croot%3E%3CmxCell%20id%3D%220%22%2F%3E%3CmxCell%20id%3D%221%22%20parent%3D%220%22%2F%3E%3CmxCell%20id%3D%222%22%20value%3D%22%22%20style%3D%22endArrow%3Dclassic%3BstartArrow%3Dclassic%3Bhtml%3D1%3Bdashed%3D1%3BdashPattern%3D1%201%3BstrokeColor%3D%23B266FF%3BexitX%3D0.776%3BexitY%3D0.96%3BexitDx%3D0%3BexitDy%3D0%3BexitPerimeter%3D0%3BentryX%3D0.002%3BentryY%3D0.48%3BentryDx%3D0%3BentryDy%3D0%3BentryPerimeter%3D0%3B%22%20edge%3D%221%22%20parent%3D%221%22%3E%3CmxGeometry%20width%3D%2250%22%20height%3D%2250%22%20relative%3D%221%22%20as%3D%22geometry%22%3E%3CmxPoint%20x%3D%2210.11999999999989%22%20y%3D%22-439.5999999999999%22%20as%3D%22sourcePoint%22%2F%3E%3CmxPoint%20x%3D%22320.4899999999998%22%20y%3D%22-124.79999999999995%22%20as%3D%22targetPoint%22%2F%3E%3CArray%20as%3D%22points%22%3E%3CmxPoint%20x%3D%2290%22%20y%3D%22-310%22%2F%3E%3C%2FArray%3E%3C%2FmxGeometry%3E%3C%2FmxCell%3E%3C%2Froot%3E%3C%2FmxGraphModel%3E&lt;/span&gt;" style="aspect=fixed;html=1;points=[];align=center;image;fontSize=12;image=img/lib/mscae/Kubernetes.svg;rounded=0;shadow=0;comic=1;strokeColor=#FF9933;strokeWidth=6;fillColor=#CCCCFF;gradientColor=none;" parent="G8baYWpvVq2G7eu6TOwq-526" vertex="1">
          <mxGeometry x="58" y="202" width="30" height="29" as="geometry"/>
        </mxCell>
        <mxCell id="G8baYWpvVq2G7eu6TOwq-561" value="" style="group;fillColor=none;" parent="G8baYWpvVq2G7eu6TOwq-402" vertex="1" connectable="0">
          <mxGeometry x="29.77783203125" y="383.4447021484375" width="245" height="240" as="geometry"/>
        </mxCell>
        <mxCell id="G8baYWpvVq2G7eu6TOwq-562" value="" style="shape=mxgraph.gcp.extras.blue_hexagon;html=1;fillColor=#10739E;gradientColor=none;strokeColor=none;verticalLabelPosition=bottom;verticalAlign=top;align=center;rounded=0;comic=1;gradientDirection=south;shadow=0;" parent="G8baYWpvVq2G7eu6TOwq-561" vertex="1">
          <mxGeometry width="245" height="240" as="geometry"/>
        </mxCell>
        <mxCell id="G8baYWpvVq2G7eu6TOwq-563" value="" style="shape=image;html=1;verticalAlign=top;verticalLabelPosition=bottom;labelBackgroundColor=#ffffff;imageAspect=0;aspect=fixed;image=https://cdn2.iconfinder.com/data/icons/font-awesome/1792/fort-awesome-128.png;rounded=0;shadow=0;comic=1;strokeColor=#FF9933;strokeWidth=6;fillColor=#CC0000;gradientColor=none;" parent="G8baYWpvVq2G7eu6TOwq-561" vertex="1">
          <mxGeometry x="98.5" y="16.66650390625" width="48" height="48" as="geometry"/>
        </mxCell>
        <mxCell id="G8baYWpvVq2G7eu6TOwq-564" value="" style="shape=image;html=1;verticalAlign=top;verticalLabelPosition=bottom;labelBackgroundColor=#ffffff;imageAspect=0;aspect=fixed;image=https://cdn2.iconfinder.com/data/icons/kitchen-appliances-computers-and-electronics/32/Appliances-26-128.png;rounded=0;shadow=0;comic=1;strokeColor=#FF9933;strokeWidth=6;fillColor=#CC0000;gradientColor=none;" parent="G8baYWpvVq2G7eu6TOwq-561" vertex="1">
          <mxGeometry x="172" y="79.5" width="65" height="65" as="geometry"/>
        </mxCell>
        <mxCell id="G8baYWpvVq2G7eu6TOwq-565" value="" style="shape=image;html=1;verticalAlign=top;verticalLabelPosition=bottom;labelBackgroundColor=#ffffff;imageAspect=0;aspect=fixed;image=https://cdn2.iconfinder.com/data/icons/airport-solid-prepare-for-take-off/512/pilot_captain-128.png;rounded=0;shadow=0;comic=1;strokeColor=#FF9933;strokeWidth=6;fillColor=#CC0000;gradientColor=none;" parent="G8baYWpvVq2G7eu6TOwq-561" vertex="1">
          <mxGeometry x="22" y="86.5" width="58" height="58" as="geometry"/>
        </mxCell>
        <mxCell id="G8baYWpvVq2G7eu6TOwq-566" value="" style="shape=image;html=1;verticalAlign=top;verticalLabelPosition=bottom;labelBackgroundColor=#ffffff;imageAspect=0;aspect=fixed;image=https://cdn4.iconfinder.com/data/icons/transportation-190/1000/boat_transport_sail_yacht_water_ship_schooner-128.png;rounded=0;shadow=0;comic=1;strokeColor=#FF9933;strokeWidth=6;fillColor=#CC0000;gradientColor=none;" parent="G8baYWpvVq2G7eu6TOwq-561" vertex="1">
          <mxGeometry x="91.5" y="154.66650390625" width="62" height="62" as="geometry"/>
        </mxCell>
        <mxCell id="G8baYWpvVq2G7eu6TOwq-567" value="" style="shape=image;html=1;verticalAlign=top;verticalLabelPosition=bottom;labelBackgroundColor=#ffffff;imageAspect=0;aspect=fixed;image=https://cdn0.iconfinder.com/data/icons/travel-filled-line-4/64/Travel-Filled-15-128.png;rounded=0;shadow=0;comic=1;strokeColor=#FF9933;strokeWidth=6;fillColor=#001933;gradientColor=none;" parent="G8baYWpvVq2G7eu6TOwq-561" vertex="1">
          <mxGeometry x="50" y="-16.33349609375" width="33" height="33" as="geometry"/>
        </mxCell>
        <mxCell id="G8baYWpvVq2G7eu6TOwq-568" value="" style="aspect=fixed;perimeter=ellipsePerimeter;html=1;align=center;shadow=0;dashed=0;fontColor=#4277BB;labelBackgroundColor=#ffffff;fontSize=12;spacingTop=3;image;image=img/lib/ibm/infrastructure/microservices_mesh.svg;rounded=0;comic=1;strokeColor=#FF9933;strokeWidth=6;fillColor=#97D077;gradientColor=none;opacity=60;" parent="G8baYWpvVq2G7eu6TOwq-561" vertex="1">
          <mxGeometry x="88.22216796875" y="85.66650390625" width="60" height="60" as="geometry"/>
        </mxCell>
        <mxCell id="-t0SxdGJJtxUaenTJ9r5-2" value="&lt;span style=&quot;font-family: &amp;#34;helvetica&amp;#34; , &amp;#34;arial&amp;#34; , sans-serif ; font-size: 0px ; background-color: rgb(248 , 249 , 250)&quot;&gt;%3CmxGraphModel%3E%3Croot%3E%3CmxCell%20id%3D%220%22%2F%3E%3CmxCell%20id%3D%221%22%20parent%3D%220%22%2F%3E%3CmxCell%20id%3D%222%22%20value%3D%22%22%20style%3D%22endArrow%3Dclassic%3BstartArrow%3Dclassic%3Bhtml%3D1%3Bdashed%3D1%3BdashPattern%3D1%201%3BstrokeColor%3D%23B266FF%3BexitX%3D0.776%3BexitY%3D0.96%3BexitDx%3D0%3BexitDy%3D0%3BexitPerimeter%3D0%3BentryX%3D0.002%3BentryY%3D0.48%3BentryDx%3D0%3BentryDy%3D0%3BentryPerimeter%3D0%3B%22%20edge%3D%221%22%20parent%3D%221%22%3E%3CmxGeometry%20width%3D%2250%22%20height%3D%2250%22%20relative%3D%221%22%20as%3D%22geometry%22%3E%3CmxPoint%20x%3D%2210.11999999999989%22%20y%3D%22-439.5999999999999%22%20as%3D%22sourcePoint%22%2F%3E%3CmxPoint%20x%3D%22320.4899999999998%22%20y%3D%22-124.79999999999995%22%20as%3D%22targetPoint%22%2F%3E%3CArray%20as%3D%22points%22%3E%3CmxPoint%20x%3D%2290%22%20y%3D%22-310%22%2F%3E%3C%2FArray%3E%3C%2FmxGeometry%3E%3C%2FmxCell%3E%3C%2Froot%3E%3C%2FmxGraphModel%3E&lt;/span&gt;" style="aspect=fixed;html=1;points=[];align=center;image;fontSize=12;image=img/lib/mscae/Kubernetes.svg;rounded=0;shadow=0;comic=1;strokeColor=#FF9933;strokeWidth=6;fillColor=#CCCCFF;gradientColor=none;" parent="G8baYWpvVq2G7eu6TOwq-561" vertex="1">
          <mxGeometry x="61.72216796875" y="202.0552978515625" width="30" height="29" as="geometry"/>
        </mxCell>
        <mxCell id="G8baYWpvVq2G7eu6TOwq-569" value="" style="group;fillColor=none;" parent="G8baYWpvVq2G7eu6TOwq-402" vertex="1" connectable="0">
          <mxGeometry x="419.77783203125" y="-206.5552978515625" width="245" height="240" as="geometry"/>
        </mxCell>
        <mxCell id="G8baYWpvVq2G7eu6TOwq-570" value="" style="shape=mxgraph.gcp.extras.blue_hexagon;html=1;fillColor=#10739E;gradientColor=none;strokeColor=none;verticalLabelPosition=bottom;verticalAlign=top;align=center;rounded=0;comic=1;gradientDirection=south;shadow=0;" parent="G8baYWpvVq2G7eu6TOwq-569" vertex="1">
          <mxGeometry width="245" height="240" as="geometry"/>
        </mxCell>
        <mxCell id="G8baYWpvVq2G7eu6TOwq-571" value="" style="shape=image;html=1;verticalAlign=top;verticalLabelPosition=bottom;labelBackgroundColor=#ffffff;imageAspect=0;aspect=fixed;image=https://cdn2.iconfinder.com/data/icons/font-awesome/1792/fort-awesome-128.png;rounded=0;shadow=0;comic=1;strokeColor=#FF9933;strokeWidth=6;fillColor=#CC0000;gradientColor=none;" parent="G8baYWpvVq2G7eu6TOwq-569" vertex="1">
          <mxGeometry x="98.5" y="16.66650390625" width="48" height="48" as="geometry"/>
        </mxCell>
        <mxCell id="G8baYWpvVq2G7eu6TOwq-572" value="" style="shape=image;html=1;verticalAlign=top;verticalLabelPosition=bottom;labelBackgroundColor=#ffffff;imageAspect=0;aspect=fixed;image=https://cdn2.iconfinder.com/data/icons/kitchen-appliances-computers-and-electronics/32/Appliances-26-128.png;rounded=0;shadow=0;comic=1;strokeColor=#FF9933;strokeWidth=6;fillColor=#CC0000;gradientColor=none;" parent="G8baYWpvVq2G7eu6TOwq-569" vertex="1">
          <mxGeometry x="172" y="79.5" width="65" height="65" as="geometry"/>
        </mxCell>
        <mxCell id="G8baYWpvVq2G7eu6TOwq-573" value="" style="shape=image;html=1;verticalAlign=top;verticalLabelPosition=bottom;labelBackgroundColor=#ffffff;imageAspect=0;aspect=fixed;image=https://cdn2.iconfinder.com/data/icons/airport-solid-prepare-for-take-off/512/pilot_captain-128.png;rounded=0;shadow=0;comic=1;strokeColor=#FF9933;strokeWidth=6;fillColor=#CC0000;gradientColor=none;" parent="G8baYWpvVq2G7eu6TOwq-569" vertex="1">
          <mxGeometry x="22" y="86.5" width="58" height="58" as="geometry"/>
        </mxCell>
        <mxCell id="G8baYWpvVq2G7eu6TOwq-574" value="" style="shape=image;html=1;verticalAlign=top;verticalLabelPosition=bottom;labelBackgroundColor=#ffffff;imageAspect=0;aspect=fixed;image=https://cdn4.iconfinder.com/data/icons/transportation-190/1000/boat_transport_sail_yacht_water_ship_schooner-128.png;rounded=0;shadow=0;comic=1;strokeColor=#FF9933;strokeWidth=6;fillColor=#CC0000;gradientColor=none;" parent="G8baYWpvVq2G7eu6TOwq-569" vertex="1">
          <mxGeometry x="91.5" y="154.66650390625" width="62" height="62" as="geometry"/>
        </mxCell>
        <mxCell id="G8baYWpvVq2G7eu6TOwq-575" value="" style="shape=image;html=1;verticalAlign=top;verticalLabelPosition=bottom;labelBackgroundColor=#ffffff;imageAspect=0;aspect=fixed;image=https://cdn0.iconfinder.com/data/icons/travel-filled-line-4/64/Travel-Filled-15-128.png;rounded=0;shadow=0;comic=1;strokeColor=#FF9933;strokeWidth=6;fillColor=#001933;gradientColor=none;" parent="G8baYWpvVq2G7eu6TOwq-569" vertex="1">
          <mxGeometry x="50" y="-16.33349609375" width="33" height="33" as="geometry"/>
        </mxCell>
        <mxCell id="G8baYWpvVq2G7eu6TOwq-576" value="" style="aspect=fixed;perimeter=ellipsePerimeter;html=1;align=center;shadow=0;dashed=0;fontColor=#4277BB;labelBackgroundColor=#ffffff;fontSize=12;spacingTop=3;image;image=img/lib/ibm/infrastructure/microservices_mesh.svg;rounded=0;comic=1;strokeColor=#FF9933;strokeWidth=6;fillColor=#97D077;gradientColor=none;opacity=60;" parent="G8baYWpvVq2G7eu6TOwq-569" vertex="1">
          <mxGeometry x="88.22216796875" y="85.66650390625" width="60" height="60" as="geometry"/>
        </mxCell>
        <mxCell id="-t0SxdGJJtxUaenTJ9r5-5" value="&lt;span style=&quot;font-family: &amp;#34;helvetica&amp;#34; , &amp;#34;arial&amp;#34; , sans-serif ; font-size: 0px ; background-color: rgb(248 , 249 , 250)&quot;&gt;%3CmxGraphModel%3E%3Croot%3E%3CmxCell%20id%3D%220%22%2F%3E%3CmxCell%20id%3D%221%22%20parent%3D%220%22%2F%3E%3CmxCell%20id%3D%222%22%20value%3D%22%22%20style%3D%22endArrow%3Dclassic%3BstartArrow%3Dclassic%3Bhtml%3D1%3Bdashed%3D1%3BdashPattern%3D1%201%3BstrokeColor%3D%23B266FF%3BexitX%3D0.776%3BexitY%3D0.96%3BexitDx%3D0%3BexitDy%3D0%3BexitPerimeter%3D0%3BentryX%3D0.002%3BentryY%3D0.48%3BentryDx%3D0%3BentryDy%3D0%3BentryPerimeter%3D0%3B%22%20edge%3D%221%22%20parent%3D%221%22%3E%3CmxGeometry%20width%3D%2250%22%20height%3D%2250%22%20relative%3D%221%22%20as%3D%22geometry%22%3E%3CmxPoint%20x%3D%2210.11999999999989%22%20y%3D%22-439.5999999999999%22%20as%3D%22sourcePoint%22%2F%3E%3CmxPoint%20x%3D%22320.4899999999998%22%20y%3D%22-124.79999999999995%22%20as%3D%22targetPoint%22%2F%3E%3CArray%20as%3D%22points%22%3E%3CmxPoint%20x%3D%2290%22%20y%3D%22-310%22%2F%3E%3C%2FArray%3E%3C%2FmxGeometry%3E%3C%2FmxCell%3E%3C%2Froot%3E%3C%2FmxGraphModel%3E&lt;/span&gt;" style="aspect=fixed;html=1;points=[];align=center;image;fontSize=12;image=img/lib/mscae/Kubernetes.svg;rounded=0;shadow=0;comic=1;strokeColor=#FF9933;strokeWidth=6;fillColor=#CCCCFF;gradientColor=none;" parent="G8baYWpvVq2G7eu6TOwq-569" vertex="1">
          <mxGeometry x="61.72216796875" y="202.0552978515625" width="30" height="29" as="geometry"/>
        </mxCell>
        <mxCell id="G8baYWpvVq2G7eu6TOwq-409" value="" style="aspect=fixed;html=1;points=[];align=center;image;fontSize=12;image=img/lib/mscae/Kubernetes.svg;rounded=0;shadow=0;comic=1;strokeColor=#FF9933;strokeWidth=6;fillColor=#CCCCFF;gradientColor=none;opacity=60;" parent="1" vertex="1">
          <mxGeometry x="680" y="333" width="30" height="29" as="geometry"/>
        </mxCell>
        <mxCell id="G8baYWpvVq2G7eu6TOwq-411" value="" style="aspect=fixed;html=1;points=[];align=center;image;fontSize=12;image=img/lib/mscae/Kubernetes.svg;rounded=0;shadow=0;comic=1;strokeColor=#FF9933;strokeWidth=6;fillColor=#CCCCFF;gradientColor=none;opacity=60;" parent="1" vertex="1">
          <mxGeometry x="880" y="218.5" width="30" height="29" as="geometry"/>
        </mxCell>
        <mxCell id="G8baYWpvVq2G7eu6TOwq-257" value="" style="endArrow=classic;startArrow=classic;html=1;dashed=1;dashPattern=1 1;strokeColor=#CC0000;" parent="1" edge="1">
          <mxGeometry width="50" height="50" relative="1" as="geometry">
            <mxPoint x="730" y="176.5" as="sourcePoint"/>
            <mxPoint x="680" y="36.5" as="targetPoint"/>
            <Array as="points">
              <mxPoint x="780" y="60"/>
            </Array>
          </mxGeometry>
        </mxCell>
        <mxCell id="G8baYWpvVq2G7eu6TOwq-507" value="" style="shape=mxgraph.gcp.extras.blue_hexagon;html=1;fillColor=#4387FD;gradientColor=none;strokeColor=none;verticalLabelPosition=bottom;verticalAlign=top;align=center;rounded=0;comic=1;gradientDirection=south;shadow=0;opacity=20;" parent="1" vertex="1">
          <mxGeometry x="814.5" y="-243.5" width="245" height="240" as="geometry"/>
        </mxCell>
        <mxCell id="G8baYWpvVq2G7eu6TOwq-508" value="" style="verticalLabelPosition=bottom;verticalAlign=top;html=1;shape=mxgraph.basic.arc;strokeColor=#10739E;strokeWidth=16;startAngle=0.6355946523174731;endAngle=0.3365870806325551;rounded=0;comic=1;shadow=0;fillColor=none;" parent="1" vertex="1">
          <mxGeometry x="864" y="-193.5" width="136" height="140" as="geometry"/>
        </mxCell>
        <mxCell id="G8baYWpvVq2G7eu6TOwq-509" value="" style="shape=image;html=1;verticalAlign=top;verticalLabelPosition=bottom;labelBackgroundColor=#ffffff;imageAspect=0;aspect=fixed;image=https://cdn3.iconfinder.com/data/icons/iconshock_developer/api.png;rounded=0;shadow=0;comic=1;strokeColor=#FF9933;strokeWidth=6;fillColor=#001933;gradientColor=none;" parent="1" vertex="1">
          <mxGeometry x="903" y="-149.5" width="52" height="52" as="geometry"/>
        </mxCell>
        <mxCell id="G8baYWpvVq2G7eu6TOwq-144" value="" style="endArrow=classic;startArrow=classic;html=1;dashed=1;dashPattern=1 1;strokeColor=#B266FF;exitX=0.078;exitY=0.318;exitDx=0;exitDy=0;exitPerimeter=0;" parent="1" source="G8baYWpvVq2G7eu6TOwq-76" edge="1">
          <mxGeometry width="50" height="50" relative="1" as="geometry">
            <mxPoint x="355.5" y="-180" as="sourcePoint"/>
            <mxPoint x="341.5" y="-214" as="targetPoint"/>
            <Array as="points">
              <mxPoint x="311.5" y="-214"/>
            </Array>
          </mxGeometry>
        </mxCell>
        <mxCell id="G8baYWpvVq2G7eu6TOwq-537" value="" style="group;fillColor=none;" parent="1" vertex="1" connectable="0">
          <mxGeometry x="79.77783203125" y="376.4447021484375" width="245" height="240" as="geometry"/>
        </mxCell>
        <mxCell id="G8baYWpvVq2G7eu6TOwq-538" value="" style="shape=mxgraph.gcp.extras.blue_hexagon;html=1;fillColor=#10739E;gradientColor=none;strokeColor=none;verticalLabelPosition=bottom;verticalAlign=top;align=center;rounded=0;comic=1;gradientDirection=south;shadow=0;" parent="G8baYWpvVq2G7eu6TOwq-537" vertex="1">
          <mxGeometry width="245" height="240" as="geometry"/>
        </mxCell>
        <mxCell id="G8baYWpvVq2G7eu6TOwq-539" value="" style="shape=image;html=1;verticalAlign=top;verticalLabelPosition=bottom;labelBackgroundColor=#ffffff;imageAspect=0;aspect=fixed;image=https://cdn2.iconfinder.com/data/icons/font-awesome/1792/fort-awesome-128.png;rounded=0;shadow=0;comic=1;strokeColor=#FF9933;strokeWidth=6;fillColor=#CC0000;gradientColor=none;" parent="G8baYWpvVq2G7eu6TOwq-537" vertex="1">
          <mxGeometry x="98.5" y="16.66650390625" width="48" height="48" as="geometry"/>
        </mxCell>
        <mxCell id="G8baYWpvVq2G7eu6TOwq-540" value="" style="shape=image;html=1;verticalAlign=top;verticalLabelPosition=bottom;labelBackgroundColor=#ffffff;imageAspect=0;aspect=fixed;image=https://cdn2.iconfinder.com/data/icons/kitchen-appliances-computers-and-electronics/32/Appliances-26-128.png;rounded=0;shadow=0;comic=1;strokeColor=#FF9933;strokeWidth=6;fillColor=#CC0000;gradientColor=none;" parent="G8baYWpvVq2G7eu6TOwq-537" vertex="1">
          <mxGeometry x="172" y="79.5" width="65" height="65" as="geometry"/>
        </mxCell>
        <mxCell id="G8baYWpvVq2G7eu6TOwq-541" value="" style="shape=image;html=1;verticalAlign=top;verticalLabelPosition=bottom;labelBackgroundColor=#ffffff;imageAspect=0;aspect=fixed;image=https://cdn2.iconfinder.com/data/icons/airport-solid-prepare-for-take-off/512/pilot_captain-128.png;rounded=0;shadow=0;comic=1;strokeColor=#FF9933;strokeWidth=6;fillColor=#CC0000;gradientColor=none;" parent="G8baYWpvVq2G7eu6TOwq-537" vertex="1">
          <mxGeometry x="22" y="86.5" width="58" height="58" as="geometry"/>
        </mxCell>
        <mxCell id="G8baYWpvVq2G7eu6TOwq-542" value="" style="shape=image;html=1;verticalAlign=top;verticalLabelPosition=bottom;labelBackgroundColor=#ffffff;imageAspect=0;aspect=fixed;image=https://cdn4.iconfinder.com/data/icons/transportation-190/1000/boat_transport_sail_yacht_water_ship_schooner-128.png;rounded=0;shadow=0;comic=1;strokeColor=#FF9933;strokeWidth=6;fillColor=#CC0000;gradientColor=none;" parent="G8baYWpvVq2G7eu6TOwq-537" vertex="1">
          <mxGeometry x="91.5" y="154.66650390625" width="62" height="62" as="geometry"/>
        </mxCell>
        <mxCell id="G8baYWpvVq2G7eu6TOwq-543" value="" style="shape=image;html=1;verticalAlign=top;verticalLabelPosition=bottom;labelBackgroundColor=#ffffff;imageAspect=0;aspect=fixed;image=https://cdn0.iconfinder.com/data/icons/travel-filled-line-4/64/Travel-Filled-15-128.png;rounded=0;shadow=0;comic=1;strokeColor=#FF9933;strokeWidth=6;fillColor=#001933;gradientColor=none;" parent="G8baYWpvVq2G7eu6TOwq-537" vertex="1">
          <mxGeometry x="50" y="-16.33349609375" width="33" height="33" as="geometry"/>
        </mxCell>
        <mxCell id="G8baYWpvVq2G7eu6TOwq-544" value="" style="aspect=fixed;perimeter=ellipsePerimeter;html=1;align=center;shadow=0;dashed=0;fontColor=#4277BB;labelBackgroundColor=#ffffff;fontSize=12;spacingTop=3;image;image=img/lib/ibm/infrastructure/microservices_mesh.svg;rounded=0;comic=1;strokeColor=#FF9933;strokeWidth=6;fillColor=#97D077;gradientColor=none;opacity=60;" parent="G8baYWpvVq2G7eu6TOwq-537" vertex="1">
          <mxGeometry x="88.22216796875" y="85.66650390625" width="60" height="60" as="geometry"/>
        </mxCell>
        <mxCell id="-t0SxdGJJtxUaenTJ9r5-3" value="&lt;span style=&quot;font-family: &amp;#34;helvetica&amp;#34; , &amp;#34;arial&amp;#34; , sans-serif ; font-size: 0px ; background-color: rgb(248 , 249 , 250)&quot;&gt;%3CmxGraphModel%3E%3Croot%3E%3CmxCell%20id%3D%220%22%2F%3E%3CmxCell%20id%3D%221%22%20parent%3D%220%22%2F%3E%3CmxCell%20id%3D%222%22%20value%3D%22%22%20style%3D%22endArrow%3Dclassic%3BstartArrow%3Dclassic%3Bhtml%3D1%3Bdashed%3D1%3BdashPattern%3D1%201%3BstrokeColor%3D%23B266FF%3BexitX%3D0.776%3BexitY%3D0.96%3BexitDx%3D0%3BexitDy%3D0%3BexitPerimeter%3D0%3BentryX%3D0.002%3BentryY%3D0.48%3BentryDx%3D0%3BentryDy%3D0%3BentryPerimeter%3D0%3B%22%20edge%3D%221%22%20parent%3D%221%22%3E%3CmxGeometry%20width%3D%2250%22%20height%3D%2250%22%20relative%3D%221%22%20as%3D%22geometry%22%3E%3CmxPoint%20x%3D%2210.11999999999989%22%20y%3D%22-439.5999999999999%22%20as%3D%22sourcePoint%22%2F%3E%3CmxPoint%20x%3D%22320.4899999999998%22%20y%3D%22-124.79999999999995%22%20as%3D%22targetPoint%22%2F%3E%3CArray%20as%3D%22points%22%3E%3CmxPoint%20x%3D%2290%22%20y%3D%22-310%22%2F%3E%3C%2FArray%3E%3C%2FmxGeometry%3E%3C%2FmxCell%3E%3C%2Froot%3E%3C%2FmxGraphModel%3E&lt;/span&gt;" style="aspect=fixed;html=1;points=[];align=center;image;fontSize=12;image=img/lib/mscae/Kubernetes.svg;rounded=0;shadow=0;comic=1;strokeColor=#FF9933;strokeWidth=6;fillColor=#CCCCFF;gradientColor=none;" parent="G8baYWpvVq2G7eu6TOwq-537" vertex="1">
          <mxGeometry x="58.22216796875" y="202.0552978515625" width="30" height="29" as="geometry"/>
        </mxCell>
        <mxCell id="G8baYWpvVq2G7eu6TOwq-585" value="" style="endArrow=classic;startArrow=classic;html=1;strokeColor=#336600;strokeWidth=1;exitX=0.265;exitY=0.143;exitDx=0;exitDy=0;exitPerimeter=0;entryX=0.25;entryY=0;entryDx=0;entryDy=0;dashed=1;dashPattern=1 1;" parent="1" source="G8baYWpvVq2G7eu6TOwq-508" target="G8baYWpvVq2G7eu6TOwq-509" edge="1">
          <mxGeometry width="50" height="50" relative="1" as="geometry">
            <mxPoint x="780" y="-323.5" as="sourcePoint"/>
            <mxPoint x="830" y="-373.5" as="targetPoint"/>
          </mxGeometry>
        </mxCell>
        <mxCell id="G8baYWpvVq2G7eu6TOwq-589" value="" style="edgeStyle=elbowEdgeStyle;rounded=0;comic=0;orthogonalLoop=1;jettySize=auto;elbow=vertical;html=1;dashed=1;dashPattern=1 1;strokeColor=#336600;strokeWidth=1;startArrow=classic;startFill=1;" parent="1" target="G8baYWpvVq2G7eu6TOwq-579" edge="1">
          <mxGeometry relative="1" as="geometry">
            <mxPoint x="1139.5" y="-123.5" as="targetPoint"/>
            <mxPoint x="1000" y="-123" as="sourcePoint"/>
          </mxGeometry>
        </mxCell>
        <mxCell id="G8baYWpvVq2G7eu6TOwq-590" value="" style="endArrow=classic;startArrow=classic;html=1;strokeColor=#336600;strokeWidth=1;exitX=0.821;exitY=0.129;exitDx=0;exitDy=0;exitPerimeter=0;dashed=1;dashPattern=1 1;entryX=0.037;entryY=0.761;entryDx=0;entryDy=0;entryPerimeter=0;" parent="1" source="G8baYWpvVq2G7eu6TOwq-239" target="G8baYWpvVq2G7eu6TOwq-508" edge="1">
          <mxGeometry width="50" height="50" relative="1" as="geometry">
            <mxPoint x="910.04" y="-163.48000000000002" as="sourcePoint"/>
            <mxPoint x="934.5" y="-139.5" as="targetPoint"/>
            <Array as="points">
              <mxPoint x="820" y="-50"/>
            </Array>
          </mxGeometry>
        </mxCell>
        <mxCell id="G8baYWpvVq2G7eu6TOwq-244" value="" style="endArrow=classic;startArrow=classic;html=1;dashed=1;dashPattern=1 1;strokeColor=#FF9933;entryX=0.673;entryY=0.071;entryDx=0;entryDy=0;entryPerimeter=0;exitX=0.001;exitY=0.301;exitDx=0;exitDy=0;exitPerimeter=0;" parent="1" source="G8baYWpvVq2G7eu6TOwq-239" target="G8baYWpvVq2G7eu6TOwq-64" edge="1">
          <mxGeometry width="50" height="50" relative="1" as="geometry">
            <mxPoint x="680" y="166.5" as="sourcePoint"/>
            <mxPoint x="424" y="-43.5" as="targetPoint"/>
            <Array as="points">
              <mxPoint x="540" y="-23.5"/>
            </Array>
          </mxGeometry>
        </mxCell>
        <mxCell id="G8baYWpvVq2G7eu6TOwq-656" value="" style="group" parent="1" vertex="1" connectable="0">
          <mxGeometry x="880" y="340" width="245" height="240" as="geometry"/>
        </mxCell>
        <mxCell id="G8baYWpvVq2G7eu6TOwq-657" value="" style="shape=mxgraph.gcp.extras.blue_hexagon;html=1;fillColor=#4387FD;gradientColor=none;strokeColor=none;verticalLabelPosition=bottom;verticalAlign=top;align=center;rounded=0;comic=1;gradientDirection=south;shadow=0;opacity=20;" parent="G8baYWpvVq2G7eu6TOwq-656" vertex="1">
          <mxGeometry width="245" height="240" as="geometry"/>
        </mxCell>
        <mxCell id="G8baYWpvVq2G7eu6TOwq-658" value="" style="shape=image;html=1;verticalAlign=top;verticalLabelPosition=bottom;labelBackgroundColor=#ffffff;imageAspect=0;aspect=fixed;image=https://cdn4.iconfinder.com/data/icons/48x48-free-object-icons/48/Blue_ball.png;rounded=0;shadow=0;comic=1;strokeColor=#10739E;strokeWidth=6;fillColor=#10739E;gradientColor=none;" parent="G8baYWpvVq2G7eu6TOwq-656" vertex="1">
          <mxGeometry x="96" y="91" width="48" height="48" as="geometry"/>
        </mxCell>
        <mxCell id="G8baYWpvVq2G7eu6TOwq-659" value="" style="aspect=fixed;html=1;points=[];align=center;image;fontSize=12;image=img/lib/mscae/Kubernetes.svg;rounded=0;shadow=0;comic=1;strokeColor=#FF9933;strokeWidth=6;fillColor=#CCCCFF;gradientColor=none;opacity=60;" parent="G8baYWpvVq2G7eu6TOwq-656" vertex="1">
          <mxGeometry x="60" y="203.5" width="30" height="29" as="geometry"/>
        </mxCell>
        <mxCell id="G8baYWpvVq2G7eu6TOwq-667" value="&lt;span style=&quot;font-family: &amp;#34;helvetica&amp;#34; , &amp;#34;arial&amp;#34; , sans-serif ; font-size: 0px ; background-color: rgb(248 , 249 , 250)&quot;&gt;%3CmxGraphModel%3E%3Croot%3E%3CmxCell%20id%3D%220%22%2F%3E%3CmxCell%20id%3D%221%22%20parent%3D%220%22%2F%3E%3CmxCell%20id%3D%222%22%20value%3D%22%22%20style%3D%22endArrow%3Dclassic%3BstartArrow%3Dclassic%3Bhtml%3D1%3Bdashed%3D1%3BdashPattern%3D1%201%3BstrokeColor%3D%23B266FF%3BexitX%3D0.776%3BexitY%3D0.96%3BexitDx%3D0%3BexitDy%3D0%3BexitPerimeter%3D0%3BentryX%3D0.002%3BentryY%3D0.48%3BentryDx%3D0%3BentryDy%3D0%3BentryPerimeter%3D0%3B%22%20edge%3D%221%22%20parent%3D%221%22%3E%3CmxGeometry%20width%3D%2250%22%20height%3D%2250%22%20relative%3D%221%22%20as%3D%22geometry%22%3E%3CmxPoint%20x%3D%2210.11999999999989%22%20y%3D%22-439.5999999999999%22%20as%3D%22sourcePoint%22%2F%3E%3CmxPoint%20x%3D%22320.4899999999998%22%20y%3D%22-124.79999999999995%22%20as%3D%22targetPoint%22%2F%3E%3CArray%20as%3D%22points%22%3E%3CmxPoint%20x%3D%2290%22%20y%3D%22-310%22%2F%3E%3C%2FArray%3E%3C%2FmxGeometry%3E%3C%2FmxCell%3E%3C%2Froot%3E%3C%2FmxGraphModel%3E&lt;/span&gt;" style="aspect=fixed;html=1;points=[];align=center;image;fontSize=12;image=img/lib/mscae/Kubernetes.svg;rounded=0;shadow=0;comic=1;strokeColor=#FF9933;strokeWidth=6;fillColor=#CCCCFF;gradientColor=none;opacity=60;" parent="1" vertex="1">
          <mxGeometry x="873" y="-40" width="30" height="29" as="geometry"/>
        </mxCell>
        <mxCell id="d0iKbo7otsLbyKsNGrBg-1" value="" style="shape=image;html=1;verticalAlign=top;verticalLabelPosition=bottom;labelBackgroundColor=#ffffff;imageAspect=0;aspect=fixed;image=https://cdn2.iconfinder.com/data/icons/circle-icons-1/64/browser-128.png" parent="1" vertex="1">
          <mxGeometry x="-770" y="-666.5" width="58" height="58" as="geometry"/>
        </mxCell>
        <mxCell id="d0iKbo7otsLbyKsNGrBg-5" value="" style="aspect=fixed;perimeter=ellipsePerimeter;html=1;align=center;shadow=0;dashed=0;fontColor=#4277BB;labelBackgroundColor=#ffffff;fontSize=12;spacingTop=3;image;image=img/lib/ibm/infrastructure/microservices_mesh.svg;rounded=0;comic=1;strokeColor=#FF9933;strokeWidth=6;fillColor=#97D077;gradientColor=none;opacity=60;" parent="1" vertex="1">
          <mxGeometry x="1280.22216796875" y="-439.83349609375" width="60" height="60" as="geometry"/>
        </mxCell>
        <mxCell id="d0iKbo7otsLbyKsNGrBg-6" value="" style="outlineConnect=0;fontColor=#232F3E;gradientColor=none;fillColor=#5A30B5;strokeColor=none;dashed=0;verticalLabelPosition=bottom;verticalAlign=top;align=center;html=1;fontSize=12;fontStyle=0;aspect=fixed;pointerEvents=1;shape=mxgraph.aws4.cluster;" parent="1" vertex="1">
          <mxGeometry x="1477" y="-768" width="78" height="78" as="geometry"/>
        </mxCell>
        <mxCell id="d0iKbo7otsLbyKsNGrBg-10" value="" style="outlineConnect=0;fontColor=#232F3E;gradientColor=none;fillColor=#5A30B5;strokeColor=none;dashed=0;verticalLabelPosition=bottom;verticalAlign=top;align=center;html=1;fontSize=12;fontStyle=0;aspect=fixed;pointerEvents=1;shape=mxgraph.aws4.vpn_connection;" parent="1" vertex="1">
          <mxGeometry x="-340" y="-641.5" width="30" height="33" as="geometry"/>
        </mxCell>
        <mxCell id="d0iKbo7otsLbyKsNGrBg-14" value="" style="shape=image;html=1;verticalAlign=top;verticalLabelPosition=bottom;labelBackgroundColor=#ffffff;imageAspect=0;aspect=fixed;image=https://cdn4.iconfinder.com/data/icons/VISTA/3d_graphics/png/128/convert_to_mesh.png;fillColor=#D5E8D4;" parent="1" vertex="1">
          <mxGeometry x="215" y="750" width="70" height="70" as="geometry"/>
        </mxCell>
        <mxCell id="-t0SxdGJJtxUaenTJ9r5-6" value="" style="shape=mxgraph.gcp.extras.blue_hexagon;html=1;fillColor=#4387FD;gradientColor=none;strokeColor=none;verticalLabelPosition=bottom;verticalAlign=top;align=center;rounded=0;comic=1;gradientDirection=south;shadow=0;opacity=20;" parent="1" vertex="1">
          <mxGeometry x="1020" y="-370" width="245" height="240" as="geometry"/>
        </mxCell>
        <mxCell id="-t0SxdGJJtxUaenTJ9r5-7" value="&lt;span style=&quot;font-family: &amp;#34;helvetica&amp;#34; , &amp;#34;arial&amp;#34; , sans-serif ; font-size: 0px ; background-color: rgb(248 , 249 , 250)&quot;&gt;%3CmxGraphModel%3E%3Croot%3E%3CmxCell%20id%3D%220%22%2F%3E%3CmxCell%20id%3D%221%22%20parent%3D%220%22%2F%3E%3CmxCell%20id%3D%222%22%20value%3D%22%22%20style%3D%22endArrow%3Dclassic%3BstartArrow%3Dclassic%3Bhtml%3D1%3Bdashed%3D1%3BdashPattern%3D1%201%3BstrokeColor%3D%23B266FF%3BexitX%3D0.776%3BexitY%3D0.96%3BexitDx%3D0%3BexitDy%3D0%3BexitPerimeter%3D0%3BentryX%3D0.002%3BentryY%3D0.48%3BentryDx%3D0%3BentryDy%3D0%3BentryPerimeter%3D0%3B%22%20edge%3D%221%22%20parent%3D%221%22%3E%3CmxGeometry%20width%3D%2250%22%20height%3D%2250%22%20relative%3D%221%22%20as%3D%22geometry%22%3E%3CmxPoint%20x%3D%2210.11999999999989%22%20y%3D%22-439.5999999999999%22%20as%3D%22sourcePoint%22%2F%3E%3CmxPoint%20x%3D%22320.4899999999998%22%20y%3D%22-124.79999999999995%22%20as%3D%22targetPoint%22%2F%3E%3CArray%20as%3D%22points%22%3E%3CmxPoint%20x%3D%2290%22%20y%3D%22-310%22%2F%3E%3C%2FArray%3E%3C%2FmxGeometry%3E%3C%2FmxCell%3E%3C%2Froot%3E%3C%2FmxGraphModel%3E&lt;/span&gt;" style="aspect=fixed;html=1;points=[];align=center;image;fontSize=12;image=img/lib/mscae/Kubernetes.svg;rounded=0;shadow=0;comic=1;strokeColor=#FF9933;strokeWidth=6;fillColor=#CCCCFF;gradientColor=none;opacity=60;" parent="1" vertex="1">
          <mxGeometry x="1080" y="-175" width="30" height="29" as="geometry"/>
        </mxCell>
        <mxCell id="-t0SxdGJJtxUaenTJ9r5-8" value="" style="verticalLabelPosition=bottom;verticalAlign=top;html=1;shape=mxgraph.basic.arc;strokeColor=#10739E;strokeWidth=16;startAngle=0.6355946523174731;endAngle=0.113293948547961;rounded=0;comic=1;shadow=0;fillColor=none;" parent="1" vertex="1">
          <mxGeometry x="1080" y="-320" width="136" height="140" as="geometry"/>
        </mxCell>
        <mxCell id="-t0SxdGJJtxUaenTJ9r5-9" value="" style="aspect=fixed;html=1;points=[];align=center;image;fontSize=12;image=img/lib/mscae/Cache_Redis_Product.svg;" parent="1" vertex="1">
          <mxGeometry x="1123" y="-271" width="50" height="42" as="geometry"/>
        </mxCell>
        <mxCell id="-t0SxdGJJtxUaenTJ9r5-11" value="" style="endArrow=classic;startArrow=classic;html=1;dashed=1;dashPattern=1 1;strokeColor=#FF3333;exitX=0.18;exitY=0.07;exitDx=0;exitDy=0;exitPerimeter=0;entryX=0.693;entryY=0.018;entryDx=0;entryDy=0;entryPerimeter=0;" parent="1" source="-t0SxdGJJtxUaenTJ9r5-8" target="G8baYWpvVq2G7eu6TOwq-64" edge="1">
          <mxGeometry width="50" height="50" relative="1" as="geometry">
            <mxPoint x="1094.7600000000002" y="-278.22" as="sourcePoint"/>
            <mxPoint x="424" y="-246" as="targetPoint"/>
            <Array as="points">
              <mxPoint x="700" y="-220"/>
            </Array>
          </mxGeometry>
        </mxCell>
        <mxCell id="-t0SxdGJJtxUaenTJ9r5-12" value="" style="endArrow=classic;startArrow=classic;html=1;dashed=1;dashPattern=1 1;strokeColor=#FF3333;entryX=0.5;entryY=0;entryDx=0;entryDy=0;entryPerimeter=0;" parent="1" source="-t0SxdGJJtxUaenTJ9r5-9" target="-t0SxdGJJtxUaenTJ9r5-8" edge="1">
          <mxGeometry width="50" height="50" relative="1" as="geometry">
            <mxPoint x="1114.48" y="-300.20000000000005" as="sourcePoint"/>
            <mxPoint x="429.94000000000005" y="-239.92000000000007" as="targetPoint"/>
            <Array as="points"/>
          </mxGeometry>
        </mxCell>
        <mxCell id="-t0SxdGJJtxUaenTJ9r5-14" value="" style="group" parent="1" vertex="1" connectable="0">
          <mxGeometry x="-230" y="-720" width="285" height="240" as="geometry"/>
        </mxCell>
        <mxCell id="G8baYWpvVq2G7eu6TOwq-668" value="" style="shape=mxgraph.gcp.extras.blue_hexagon;html=1;fillColor=#CCCCFF;gradientColor=none;strokeColor=#000000;verticalLabelPosition=bottom;verticalAlign=top;align=center;rounded=0;comic=1;gradientDirection=south;shadow=0;opacity=80;" parent="-t0SxdGJJtxUaenTJ9r5-14" vertex="1">
          <mxGeometry x="40" y="-32.5" width="245" height="240" as="geometry"/>
        </mxCell>
        <mxCell id="G8baYWpvVq2G7eu6TOwq-374" value="" style="shape=mxgraph.gcp.extras.blue_hexagon;html=1;fillColor=#CCCCFF;gradientColor=none;strokeColor=#000000;verticalLabelPosition=bottom;verticalAlign=top;align=center;rounded=0;comic=1;gradientDirection=south;shadow=0;opacity=70;" parent="-t0SxdGJJtxUaenTJ9r5-14" vertex="1">
          <mxGeometry width="245" height="240" as="geometry"/>
        </mxCell>
        <mxCell id="G8baYWpvVq2G7eu6TOwq-624" value="" style="verticalLabelPosition=bottom;html=1;fillColor=#A153A0;verticalAlign=top;pointerEvents=1;align=center;points=[[0.25,0,0],[0.5,0,0],[0.75,0,0],[1,0.5,0],[0.75,1,0],[0.5,1,0],[0.25,1,0],[0,0.5,0],[0.125,0.25,0],[0.125,0.75,0],[0.875,0.25,0],[0.875,0.75,0]];shape=mxgraph.cisco_safe.design.firewall;rounded=0;shadow=0;comic=1;strokeColor=#10739E;strokeWidth=6;" parent="-t0SxdGJJtxUaenTJ9r5-14" vertex="1">
          <mxGeometry x="142.5" y="176" width="45" height="43" as="geometry"/>
        </mxCell>
        <mxCell id="G8baYWpvVq2G7eu6TOwq-377" value="" style="outlineConnect=0;fontColor=#232F3E;gradientColor=none;fillColor=#5A30B5;strokeColor=none;dashed=0;verticalLabelPosition=bottom;verticalAlign=top;align=center;html=1;fontSize=12;fontStyle=0;aspect=fixed;pointerEvents=1;shape=mxgraph.aws4.route_table;rounded=0;shadow=0;comic=1;opacity=60;" parent="-t0SxdGJJtxUaenTJ9r5-14" vertex="1">
          <mxGeometry x="19" y="96.5" width="42" height="41" as="geometry"/>
        </mxCell>
        <mxCell id="G8baYWpvVq2G7eu6TOwq-379" value="" style="aspect=fixed;html=1;points=[];align=center;image;fontSize=12;image=img/lib/mscae/Route_Filter.svg;rounded=0;shadow=0;comic=1;strokeColor=#FF9933;strokeWidth=6;fillColor=#CCCCFF;gradientColor=none;opacity=60;" parent="-t0SxdGJJtxUaenTJ9r5-14" vertex="1">
          <mxGeometry x="65" y="18" width="50" height="42" as="geometry"/>
        </mxCell>
        <mxCell id="G8baYWpvVq2G7eu6TOwq-380" value="" style="outlineConnect=0;fontColor=#232F3E;gradientColor=none;fillColor=#5A30B5;strokeColor=none;dashed=0;verticalLabelPosition=bottom;verticalAlign=top;align=center;html=1;fontSize=12;fontStyle=0;aspect=fixed;pointerEvents=1;shape=mxgraph.aws4.router;rounded=0;shadow=0;comic=1;opacity=60;" parent="-t0SxdGJJtxUaenTJ9r5-14" vertex="1">
          <mxGeometry x="93" y="87.5" width="59" height="59" as="geometry"/>
        </mxCell>
        <mxCell id="G8baYWpvVq2G7eu6TOwq-381" value="" style="outlineConnect=0;fontColor=#232F3E;gradientColor=none;fillColor=#6600CC;strokeColor=none;dashed=0;verticalLabelPosition=bottom;verticalAlign=top;align=center;html=1;fontSize=12;fontStyle=0;aspect=fixed;pointerEvents=1;shape=mxgraph.aws4.cache_node;rounded=0;shadow=0;comic=1;opacity=60;" parent="-t0SxdGJJtxUaenTJ9r5-14" vertex="1">
          <mxGeometry x="54" y="178" width="39" height="39" as="geometry"/>
        </mxCell>
        <mxCell id="G8baYWpvVq2G7eu6TOwq-382" value="" style="outlineConnect=0;fontColor=#232F3E;gradientColor=none;gradientDirection=north;fillColor=#CCCCFF;strokeColor=#ffffff;dashed=0;verticalLabelPosition=bottom;verticalAlign=top;align=center;html=1;fontSize=12;fontStyle=0;aspect=fixed;shape=mxgraph.aws4.resourceIcon;resIcon=mxgraph.aws4.elastic_load_balancing;rounded=0;shadow=0;comic=1;opacity=60;" parent="-t0SxdGJJtxUaenTJ9r5-14" vertex="1">
          <mxGeometry x="180" y="97" width="47" height="47" as="geometry"/>
        </mxCell>
        <mxCell id="d0iKbo7otsLbyKsNGrBg-20" value="" style="aspect=fixed;html=1;points=[];align=center;image;fontSize=12;image=img/lib/mscae/Traffic_Manager.svg;fillColor=#D5E8D4;" parent="-t0SxdGJJtxUaenTJ9r5-14" vertex="1">
          <mxGeometry x="145" y="21" width="40" height="40" as="geometry"/>
        </mxCell>
        <mxCell id="-t0SxdGJJtxUaenTJ9r5-19" value="&lt;span style=&quot;font-family: &amp;#34;helvetica&amp;#34; , &amp;#34;arial&amp;#34; , sans-serif ; font-size: 0px ; background-color: rgb(248 , 249 , 250)&quot;&gt;%3CmxGraphModel%3E%3Croot%3E%3CmxCell%20id%3D%220%22%2F%3E%3CmxCell%20id%3D%221%22%20parent%3D%220%22%2F%3E%3CmxCell%20id%3D%222%22%20value%3D%22%22%20style%3D%22endArrow%3Dclassic%3BstartArrow%3Dclassic%3Bhtml%3D1%3Bdashed%3D1%3BdashPattern%3D1%201%3BstrokeColor%3D%23FF3333%3BentryX%3D0.612%3BentryY%3D0.167%3BentryDx%3D0%3BentryDy%3D0%3BentryPerimeter%3D0%3BexitX%3D0.18%3BexitY%3D0.07%3BexitDx%3D0%3BexitDy%3D0%3BexitPerimeter%3D0%3B%22%20edge%3D%221%22%20parent%3D%221%22%3E%3CmxGeometry%20width%3D%2250%22%20height%3D%2250%22%20relative%3D%221%22%20as%3D%22geometry%22%3E%3CmxPoint%20x%3D%221104.48%22%20y%3D%22-310.20000000000005%22%20as%3D%22sourcePoint%22%2F%3E%3CmxPoint%20x%3D%22419.94000000000005%22%20y%3D%22-249.92000000000007%22%20as%3D%22targetPoint%22%2F%3E%3CArray%20as%3D%22points%22%3E%3CmxPoint%20x%3D%22700%22%20y%3D%22-220%22%2F%3E%3C%2FArray%3E%3C%2FmxGeometry%3E%3C%2FmxCell%3E%3C%2Froot%3E%3C%2FmxGraphModel%3E&lt;/span&gt;" style="aspect=fixed;html=1;points=[];align=center;image;fontSize=12;image=img/lib/mscae/Kubernetes.svg;rounded=0;shadow=0;comic=1;strokeColor=#FF9933;strokeWidth=6;fillColor=#CCCCFF;gradientColor=none;opacity=60;" parent="-t0SxdGJJtxUaenTJ9r5-14" vertex="1">
          <mxGeometry x="200" y="-24" width="25" height="24" as="geometry"/>
        </mxCell>
        <mxCell id="-t0SxdGJJtxUaenTJ9r5-15" value="" style="group" parent="1" vertex="1" connectable="0">
          <mxGeometry x="287" y="-320" width="278.5" height="270" as="geometry"/>
        </mxCell>
        <mxCell id="G8baYWpvVq2G7eu6TOwq-76" value="" style="shape=mxgraph.gcp.extras.blue_hexagon;html=1;fillColor=#4387FD;gradientColor=none;strokeColor=none;verticalLabelPosition=bottom;verticalAlign=top;align=center;rounded=0;comic=1;gradientDirection=south;shadow=0;opacity=20;" parent="-t0SxdGJJtxUaenTJ9r5-15" vertex="1">
          <mxGeometry width="245" height="240" as="geometry"/>
        </mxCell>
        <mxCell id="G8baYWpvVq2G7eu6TOwq-64" value="" style="verticalLabelPosition=bottom;verticalAlign=top;html=1;shape=mxgraph.basic.arc;strokeColor=#10739E;strokeWidth=16;startAngle=0.48340465753755385;endAngle=0.051694902021742616;rounded=0;comic=1;shadow=0;fillColor=none;" parent="-t0SxdGJJtxUaenTJ9r5-15" vertex="1">
          <mxGeometry x="58.5" y="50" width="136" height="140" as="geometry"/>
        </mxCell>
        <mxCell id="G8baYWpvVq2G7eu6TOwq-68" value="" style="shape=image;html=1;verticalAlign=top;verticalLabelPosition=bottom;labelBackgroundColor=#ffffff;imageAspect=0;aspect=fixed;image=https://cdn0.iconfinder.com/data/icons/3D-shapes-psd/128/ball-1x1.png;rounded=0;comic=1;strokeWidth=10;" parent="-t0SxdGJJtxUaenTJ9r5-15" vertex="1">
          <mxGeometry x="98.5" y="96" width="48" height="48" as="geometry"/>
        </mxCell>
        <mxCell id="G8baYWpvVq2G7eu6TOwq-128" value="" style="endArrow=classic;startArrow=classic;html=1;dashed=1;dashPattern=1 1;entryX=0.5;entryY=1;entryDx=0;entryDy=0;strokeColor=#A680B8;" parent="-t0SxdGJJtxUaenTJ9r5-15" target="G8baYWpvVq2G7eu6TOwq-68" edge="1">
          <mxGeometry width="50" height="50" relative="1" as="geometry">
            <mxPoint x="123" y="180" as="sourcePoint"/>
            <mxPoint x="-85.5" y="270" as="targetPoint"/>
          </mxGeometry>
        </mxCell>
        <mxCell id="-t0SxdGJJtxUaenTJ9r5-17" value="" style="group" parent="-t0SxdGJJtxUaenTJ9r5-15" vertex="1" connectable="0">
          <mxGeometry x="4" y="30" width="263.5" height="240" as="geometry"/>
        </mxCell>
        <mxCell id="G8baYWpvVq2G7eu6TOwq-305" value="" style="shape=mxgraph.gcp.extras.blue_hexagon;html=1;fillColor=#4387FD;gradientColor=none;strokeColor=none;verticalLabelPosition=bottom;verticalAlign=top;align=center;rounded=0;comic=1;gradientDirection=south;shadow=0;opacity=20;" parent="-t0SxdGJJtxUaenTJ9r5-17" vertex="1">
          <mxGeometry x="18.5" width="245" height="240" as="geometry"/>
        </mxCell>
        <mxCell id="-t0SxdGJJtxUaenTJ9r5-16" value="" style="group" parent="-t0SxdGJJtxUaenTJ9r5-17" vertex="1" connectable="0">
          <mxGeometry x="-11" y="45" width="213" height="150" as="geometry"/>
        </mxCell>
        <mxCell id="G8baYWpvVq2G7eu6TOwq-306" value="" style="verticalLabelPosition=bottom;verticalAlign=top;html=1;shape=mxgraph.basic.arc;strokeColor=#10739E;strokeWidth=16;startAngle=0.49163114582171297;endAngle=0.023696571138744814;rounded=0;comic=1;shadow=0;fillColor=none;" parent="-t0SxdGJJtxUaenTJ9r5-16" vertex="1">
          <mxGeometry x="77" width="133" height="140" as="geometry"/>
        </mxCell>
        <mxCell id="G8baYWpvVq2G7eu6TOwq-307" value="" style="shape=image;html=1;verticalAlign=top;verticalLabelPosition=bottom;labelBackgroundColor=#ffffff;imageAspect=0;aspect=fixed;image=https://cdn0.iconfinder.com/data/icons/3D-shapes-psd/128/ball-1x1.png;rounded=0;comic=1;strokeWidth=10;" parent="-t0SxdGJJtxUaenTJ9r5-16" vertex="1">
          <mxGeometry x="119" y="41.5" width="48" height="48" as="geometry"/>
        </mxCell>
        <mxCell id="G8baYWpvVq2G7eu6TOwq-308" value="" style="endArrow=classic;startArrow=classic;html=1;dashed=1;dashPattern=1 1;entryX=0.5;entryY=1;entryDx=0;entryDy=0;strokeColor=#B266FF;exitX=0.491;exitY=0.991;exitDx=0;exitDy=0;exitPerimeter=0;" parent="-t0SxdGJJtxUaenTJ9r5-16" source="G8baYWpvVq2G7eu6TOwq-306" target="G8baYWpvVq2G7eu6TOwq-307" edge="1">
          <mxGeometry width="50" height="50" relative="1" as="geometry">
            <mxPoint y="150" as="sourcePoint"/>
            <mxPoint x="-216.5" y="230" as="targetPoint"/>
          </mxGeometry>
        </mxCell>
        <mxCell id="G8baYWpvVq2G7eu6TOwq-309" value="" style="endArrow=classic;startArrow=classic;html=1;dashed=1;dashPattern=1 1;strokeColor=#B266FF;exitX=0.002;exitY=0.484;exitDx=0;exitDy=0;exitPerimeter=0;entryX=0.03;entryY=0.711;entryDx=0;entryDy=0;entryPerimeter=0;" parent="-t0SxdGJJtxUaenTJ9r5-17" source="G8baYWpvVq2G7eu6TOwq-305" target="G8baYWpvVq2G7eu6TOwq-306" edge="1">
          <mxGeometry width="50" height="50" relative="1" as="geometry">
            <mxPoint x="338.5" y="-160" as="sourcePoint"/>
            <mxPoint x="324.5" y="-194" as="targetPoint"/>
            <Array as="points"/>
          </mxGeometry>
        </mxCell>
        <mxCell id="G8baYWpvVq2G7eu6TOwq-405" value="&lt;span style=&quot;font-family: &amp;#34;helvetica&amp;#34; , &amp;#34;arial&amp;#34; , sans-serif ; font-size: 0px ; background-color: rgb(248 , 249 , 250)&quot;&gt;%3CmxGraphModel%3E%3Croot%3E%3CmxCell%20id%3D%220%22%2F%3E%3CmxCell%20id%3D%221%22%20parent%3D%220%22%2F%3E%3CmxCell%20id%3D%222%22%20value%3D%22%22%20style%3D%22endArrow%3Dclassic%3BstartArrow%3Dclassic%3Bhtml%3D1%3Bdashed%3D1%3BdashPattern%3D1%201%3BstrokeColor%3D%23FF3333%3BentryX%3D0.612%3BentryY%3D0.167%3BentryDx%3D0%3BentryDy%3D0%3BentryPerimeter%3D0%3BexitX%3D0.18%3BexitY%3D0.07%3BexitDx%3D0%3BexitDy%3D0%3BexitPerimeter%3D0%3B%22%20edge%3D%221%22%20parent%3D%221%22%3E%3CmxGeometry%20width%3D%2250%22%20height%3D%2250%22%20relative%3D%221%22%20as%3D%22geometry%22%3E%3CmxPoint%20x%3D%221104.48%22%20y%3D%22-310.20000000000005%22%20as%3D%22sourcePoint%22%2F%3E%3CmxPoint%20x%3D%22419.94000000000005%22%20y%3D%22-249.92000000000007%22%20as%3D%22targetPoint%22%2F%3E%3CArray%20as%3D%22points%22%3E%3CmxPoint%20x%3D%22700%22%20y%3D%22-220%22%2F%3E%3C%2FArray%3E%3C%2FmxGeometry%3E%3C%2FmxCell%3E%3C%2Froot%3E%3C%2FmxGraphModel%3E&lt;/span&gt;" style="aspect=fixed;html=1;points=[];align=center;image;fontSize=12;image=img/lib/mscae/Kubernetes.svg;rounded=0;shadow=0;comic=1;strokeColor=#FF9933;strokeWidth=6;fillColor=#CCCCFF;gradientColor=none;" parent="-t0SxdGJJtxUaenTJ9r5-17" vertex="1">
          <mxGeometry x="76" y="210" width="25" height="24" as="geometry"/>
        </mxCell>
        <mxCell id="G8baYWpvVq2G7eu6TOwq-310" value="" style="endArrow=classic;startArrow=classic;html=1;dashed=1;dashPattern=1 1;strokeColor=#FF9933;exitX=-0.028;exitY=0.573;exitDx=0;exitDy=0;exitPerimeter=0;entryX=0.513;entryY=-0.009;entryDx=0;entryDy=0;entryPerimeter=0;" parent="1" source="G8baYWpvVq2G7eu6TOwq-239" target="G8baYWpvVq2G7eu6TOwq-306" edge="1">
          <mxGeometry width="50" height="50" relative="1" as="geometry">
            <mxPoint x="700" y="186.5" as="sourcePoint"/>
            <mxPoint x="402" y="-239" as="targetPoint"/>
            <Array as="points">
              <mxPoint x="540" y="16.5"/>
            </Array>
          </mxGeometry>
        </mxCell>
        <mxCell id="-t0SxdGJJtxUaenTJ9r5-10" value="" style="endArrow=classic;startArrow=classic;html=1;dashed=1;dashPattern=1 1;strokeColor=#FF3333;entryX=0.712;entryY=0.038;entryDx=0;entryDy=0;entryPerimeter=0;exitX=0.035;exitY=0.227;exitDx=0;exitDy=0;exitPerimeter=0;" parent="1" source="-t0SxdGJJtxUaenTJ9r5-8" target="G8baYWpvVq2G7eu6TOwq-306" edge="1">
          <mxGeometry width="50" height="50" relative="1" as="geometry">
            <mxPoint x="664.7000187899321" y="4.031018591557768" as="sourcePoint"/>
            <mxPoint x="410.0279999999998" y="-240.05999999999995" as="targetPoint"/>
            <Array as="points">
              <mxPoint x="700" y="-200"/>
            </Array>
          </mxGeometry>
        </mxCell>
        <mxCell id="-t0SxdGJJtxUaenTJ9r5-24" value="" style="shape=image;html=1;verticalAlign=top;verticalLabelPosition=bottom;labelBackgroundColor=#ffffff;imageAspect=0;aspect=fixed;image=https://cdn3.iconfinder.com/data/icons/tango-icon-library/48/internet-web-browser-128.png;comic=1;fillColor=#A9C4EB;" parent="1" vertex="1">
          <mxGeometry x="-544" y="-930" width="128" height="128" as="geometry"/>
        </mxCell>
        <mxCell id="-t0SxdGJJtxUaenTJ9r5-26" value="" style="shape=image;html=1;verticalAlign=top;verticalLabelPosition=bottom;labelBackgroundColor=#ffffff;imageAspect=0;aspect=fixed;image=https://cdn2.iconfinder.com/data/icons/circle-icons-1/64/browser-128.png" parent="1" vertex="1">
          <mxGeometry x="-770" y="-582" width="58" height="58" as="geometry"/>
        </mxCell>
        <mxCell id="G8baYWpvVq2G7eu6TOwq-385" value="" style="endArrow=classic;startArrow=classic;html=1;dashed=1;dashPattern=1 1;strokeColor=#B266FF;exitX=0.86;exitY=0.808;exitDx=0;exitDy=0;exitPerimeter=0;entryX=0.078;entryY=0.326;entryDx=0;entryDy=0;entryPerimeter=0;" parent="1" source="G8baYWpvVq2G7eu6TOwq-374" target="G8baYWpvVq2G7eu6TOwq-76" edge="1">
          <mxGeometry width="50" height="50" relative="1" as="geometry">
            <mxPoint x="230.48999999999978" y="-137.33999999999992" as="sourcePoint"/>
            <mxPoint x="284.5" y="-157.5" as="targetPoint"/>
            <Array as="points">
              <mxPoint x="130" y="-440"/>
            </Array>
          </mxGeometry>
        </mxCell>
        <mxCell id="-t0SxdGJJtxUaenTJ9r5-27" value="" style="endArrow=classic;startArrow=classic;html=1;dashed=1;dashPattern=1 1;strokeColor=#B266FF;exitX=1;exitY=0.5;exitDx=0;exitDy=0;" parent="1" source="-t0SxdGJJtxUaenTJ9r5-26" target="G8baYWpvVq2G7eu6TOwq-374" edge="1">
          <mxGeometry width="50" height="50" relative="1" as="geometry">
            <mxPoint x="-9.300000000000182" y="-516.0799999999999" as="sourcePoint"/>
            <mxPoint x="-230" y="-590" as="targetPoint"/>
            <Array as="points">
              <mxPoint x="-600" y="-598"/>
            </Array>
          </mxGeometry>
        </mxCell>
        <mxCell id="G8baYWpvVq2G7eu6TOwq-666" value="" style="endArrow=classic;startArrow=classic;html=1;dashed=1;dashPattern=1 1;strokeColor=#B266FF;entryX=1;entryY=0.5;entryDx=0;entryDy=0;" parent="1" target="d0iKbo7otsLbyKsNGrBg-1" edge="1" source="G8baYWpvVq2G7eu6TOwq-374">
          <mxGeometry width="50" height="50" relative="1" as="geometry">
            <mxPoint x="-227" y="-600" as="sourcePoint"/>
            <mxPoint x="-820" y="-700" as="targetPoint"/>
            <Array as="points">
              <mxPoint x="-600" y="-600"/>
            </Array>
          </mxGeometry>
        </mxCell>
        <mxCell id="G8baYWpvVq2G7eu6TOwq-635" value="" style="aspect=fixed;html=1;points=[];align=center;image;fontSize=12;image=img/lib/mscae/DNS.svg;rounded=0;shadow=0;comic=1;strokeColor=#10739E;strokeWidth=6;fillColor=#10739E;gradientColor=none;" parent="1" vertex="1">
          <mxGeometry x="-480" y="-625" width="50" height="50" as="geometry"/>
        </mxCell>
        <mxCell id="YfsyUW3J8C4D2k8uaty3-1" value="" style="group" vertex="1" connectable="0" parent="1">
          <mxGeometry x="1500" y="-220" width="105" height="151" as="geometry"/>
        </mxCell>
        <mxCell id="G8baYWpvVq2G7eu6TOwq-663" value="" style="group" parent="YfsyUW3J8C4D2k8uaty3-1" vertex="1" connectable="0">
          <mxGeometry width="105" height="151" as="geometry"/>
        </mxCell>
        <mxCell id="G8baYWpvVq2G7eu6TOwq-618" value="" style="group" parent="G8baYWpvVq2G7eu6TOwq-663" vertex="1" connectable="0">
          <mxGeometry width="105" height="151" as="geometry"/>
        </mxCell>
        <mxCell id="G8baYWpvVq2G7eu6TOwq-578" value="" style="outlineConnect=0;dashed=0;verticalLabelPosition=bottom;verticalAlign=top;align=center;html=1;shape=mxgraph.aws3.generic_database;fillColor=#97D077;gradientColor=none;rounded=0;shadow=0;comic=1;strokeColor=none;strokeWidth=6;" parent="G8baYWpvVq2G7eu6TOwq-618" vertex="1">
          <mxGeometry width="70" height="92" as="geometry"/>
        </mxCell>
        <mxCell id="G8baYWpvVq2G7eu6TOwq-579" value="" style="outlineConnect=0;dashed=0;verticalLabelPosition=bottom;verticalAlign=top;align=center;html=1;shape=mxgraph.aws3.generic_database;fillColor=#FF8000;gradientColor=none;rounded=0;shadow=0;comic=1;strokeColor=none;strokeWidth=6;" parent="G8baYWpvVq2G7eu6TOwq-618" vertex="1">
          <mxGeometry x="17" y="30" width="70" height="92" as="geometry"/>
        </mxCell>
        <mxCell id="G8baYWpvVq2G7eu6TOwq-580" value="" style="outlineConnect=0;dashed=0;verticalLabelPosition=bottom;verticalAlign=top;align=center;html=1;shape=mxgraph.aws3.generic_database;fillColor=#336600;gradientColor=none;rounded=0;shadow=0;comic=1;strokeColor=none;strokeWidth=6;" parent="G8baYWpvVq2G7eu6TOwq-618" vertex="1">
          <mxGeometry x="35" y="59" width="70" height="92" as="geometry"/>
        </mxCell>
      </root>
    </mxGraphModel>
  </diagram>
</mxfile>
